<svg width="391" height="101" viewBox="0 0 391 101" fill="none" xmlns="http://www.w3.org/2000/svg">
    <path fill-rule="evenodd" clip-rule="evenodd" d="M55.7721 86.0709C52.1817 87.6919 48.2859 88.799 44.1663 89.2887C22.5036 91.8637 2.85499 76.3901 0.279993 54.7273C-1.75708 37.5899 7.50137 21.7131 22.1837 14.5527C22.1212 15.6307 22.0582 16.824 22.0036 18.0227C9.30883 24.9614 1.44681 39.1275 3.25902 54.3732C5.63845 74.3907 23.7947 88.6891 43.8122 86.3097C48.0497 85.806 52.0309 84.5953 55.6519 82.8096C55.6541 82.8439 55.6564 82.8781 55.6586 82.9123C55.7332 84.0573 55.7687 85.1095 55.7721 86.0709ZM69.0524 76.2787C76.2722 68.1346 80.1134 57.0602 78.7277 45.4024C76.4675 26.3876 61.0525 12.1413 42.6673 10.6841C43.4591 11.73 44.2513 12.8291 45.0417 13.9781C60.8578 16.3961 73.7682 29.0953 75.7487 45.7565C76.9202 55.6119 74.049 65.0162 68.4429 72.3086C68.6756 73.6556 68.8791 74.9803 69.0524 76.2787Z" fill="#F8F8F8"/>
    <path fill-rule="evenodd" clip-rule="evenodd" d="M56.8277 64.6943C55.4021 58.9501 53.4589 52.7621 50.9973 46.3851C45.8368 33.016 39.5473 21.7929 33.7102 14.4508C30.7684 10.7505 28.1586 8.31233 26.1034 7.0084C24.8915 6.23953 24.2029 6.05725 23.9082 6.01678C23.7171 6.24477 23.3296 6.84244 22.9486 8.22614C22.5165 9.79556 22.2416 11.9074 22.1988 14.5453C20.1046 15.5655 18.1207 16.763 16.264 18.1162C15.8031 8.59867 17.5778 1.96957 21.7277 0.36773C30.35 -2.96052 45.9606 16.6748 56.5948 44.2244C59.238 51.0722 61.3251 57.7643 62.8366 64.0063C61.577 63.0954 60.0275 62.7914 58.6235 63.3312C57.8936 63.6119 57.2873 64.0881 56.8277 64.6943ZM58.5906 73.0207C59.1249 76.1159 59.4781 79.0107 59.6502 81.6523C59.9575 86.3694 59.6628 89.9288 59.0167 92.2754C58.6358 93.6591 58.2482 94.2568 58.0572 94.4847C57.7624 94.4443 57.0738 94.262 55.862 93.4931C54.224 92.4539 52.2338 90.6942 50.0039 88.1493C48.1171 88.667 46.1681 89.0508 44.1663 89.2887C43.8588 89.3253 43.5518 89.3582 43.2451 89.3875C49.6673 97.5847 55.8552 101.825 60.2377 100.134C65.7771 97.9956 67.0845 86.8997 64.4916 71.9331C64.0168 72.6441 63.3552 73.2024 62.5392 73.5161C61.2321 74.0187 59.7987 73.7898 58.5906 73.0207ZM57.9351 94.6075L57.9359 94.6068L57.9371 94.6058C57.9387 94.6046 57.9413 94.6028 57.9448 94.6005C57.9385 94.6056 57.9352 94.6077 57.9351 94.6075ZM58.2181 94.495C58.2259 94.4938 58.23 94.4935 58.23 94.4937C58.2301 94.4939 58.2262 94.4945 58.2181 94.495ZM24.0302 5.89399C24.0303 5.89416 24.0272 5.89668 24.0206 5.90103C24.0268 5.89599 24.0301 5.89382 24.0302 5.89399ZM23.7472 6.00655C23.7394 6.00776 23.7354 6.008 23.7353 6.00782C23.7353 6.00763 23.7392 6.00703 23.7472 6.00655Z" fill="#F8F8F8"/>
    <path d="M35.4323 51.4869C35.4323 51.4869 48.9132 57.4016 59.2609 65.5441C59.8225 65.9861 60.6593 65.7315 60.8669 65.0477C64.3081 53.7124 68.4323 41.4869 68.4323 41.4869" stroke="#F8F8F8" stroke-width="5"/>
    <circle cx="12.5" cy="46.9869" r="3.5" fill="#F8F8F8"/>
    <circle cx="16" cy="35.4869" r="3" fill="#F8F8F8"/>
    <circle cx="21" cy="27.4869" r="2" fill="#F8F8F8"/>
    <path d="M140.688 68.7588L136.944 65.0628C135.632 66.0548 134.168 66.8308 132.552 67.3908C130.952 67.9508 129.264 68.2308 127.488 68.2308C125.216 68.2308 123.08 67.7828 121.08 66.8868C119.08 65.9748 117.32 64.7268 115.8 63.1428C114.28 61.5428 113.088 59.6868 112.224 57.5748C111.36 55.4628 110.928 53.2068 110.928 50.8068C110.928 48.4068 111.36 46.1588 112.224 44.0628C113.088 41.9508 114.28 40.0948 115.8 38.4948C117.32 36.8948 119.08 35.6468 121.08 34.7508C123.08 33.8388 125.216 33.3828 127.488 33.3828C129.776 33.3828 131.92 33.8388 133.92 34.7508C135.92 35.6468 137.68 36.8948 139.2 38.4948C140.72 40.0948 141.904 41.9508 142.752 44.0628C143.616 46.1588 144.048 48.4068 144.048 50.8068C144.048 52.6788 143.776 54.4628 143.232 56.1588C142.688 57.8388 141.944 59.3908 141 60.8148L144.816 64.6308L140.688 68.7588ZM127.488 62.3748C128.416 62.3748 129.328 62.2388 130.224 61.9668C131.12 61.6788 131.944 61.2788 132.696 60.7668L129.648 57.7188L133.776 53.5668L136.632 56.4468C137.144 55.6148 137.528 54.7188 137.784 53.7588C138.056 52.7988 138.192 51.8148 138.192 50.8068C138.192 49.2068 137.912 47.7108 137.352 46.3188C136.792 44.9268 136.016 43.7028 135.024 42.6468C134.048 41.5748 132.912 40.7428 131.616 40.1508C130.336 39.5428 128.96 39.2388 127.488 39.2388C126.016 39.2388 124.632 39.5428 123.336 40.1508C122.04 40.7588 120.896 41.5988 119.904 42.6708C118.928 43.7268 118.16 44.9508 117.6 46.3428C117.056 47.7348 116.784 49.2228 116.784 50.8068C116.784 52.3908 117.064 53.8868 117.624 55.2948C118.184 56.6868 118.952 57.9188 119.928 58.9908C120.92 60.0468 122.056 60.8788 123.336 61.4868C124.632 62.0788 126.016 62.3748 127.488 62.3748ZM149.352 58.8708V43.7508H155.208V57.3348C155.208 58.2788 155.44 59.1428 155.904 59.9268C156.368 60.6948 156.984 61.3108 157.752 61.7748C158.536 62.2228 159.392 62.4468 160.32 62.4468C161.28 62.4468 162.144 62.2228 162.912 61.7748C163.68 61.3108 164.296 60.6948 164.76 59.9268C165.224 59.1428 165.456 58.2788 165.456 57.3348V43.7508H171.312L171.336 67.7508H165.48L165.456 65.5668C164.624 66.4308 163.64 67.1188 162.504 67.6308C161.368 68.1268 160.152 68.3748 158.856 68.3748C157.112 68.3748 155.52 67.9508 154.08 67.1028C152.64 66.2388 151.488 65.0948 150.624 63.6708C149.776 62.2308 149.352 60.6308 149.352 58.8708ZM195.301 43.7508H201.157V67.7508H195.301L195.037 64.7748C194.381 65.8468 193.509 66.7188 192.421 67.3908C191.349 68.0468 190.077 68.3748 188.605 68.3748C186.829 68.3748 185.165 68.0388 183.613 67.3668C182.061 66.6948 180.693 65.7668 179.509 64.5828C178.341 63.3988 177.421 62.0308 176.749 60.4788C176.093 58.9268 175.765 57.2628 175.765 55.4868C175.765 53.7748 176.077 52.1668 176.701 50.6628C177.341 49.1588 178.229 47.8388 179.365 46.7028C180.501 45.5668 181.813 44.6788 183.301 44.0388C184.789 43.3988 186.389 43.0788 188.101 43.0788C189.685 43.0788 191.101 43.4308 192.349 44.1348C193.613 44.8388 194.685 45.7348 195.565 46.8228L195.301 43.7508ZM188.461 62.7348C189.709 62.7348 190.813 62.4228 191.773 61.7988C192.733 61.1748 193.485 60.3348 194.029 59.2788C194.573 58.2068 194.845 57.0308 194.845 55.7508C194.845 54.4548 194.573 53.2788 194.029 52.2228C193.485 51.1508 192.725 50.3028 191.749 49.6788C190.789 49.0548 189.693 48.7428 188.461 48.7428C187.229 48.7428 186.101 49.0628 185.077 49.7028C184.069 50.3268 183.261 51.1668 182.653 52.2228C182.061 53.2788 181.765 54.4548 181.765 55.7508C181.765 57.0468 182.069 58.2228 182.677 59.2788C183.285 60.3348 184.093 61.1748 185.101 61.7988C186.125 62.4228 187.245 62.7348 188.461 62.7348ZM207.404 67.7508L207.38 43.7508H213.236L213.26 45.8868C214.076 45.0228 215.052 44.3428 216.188 43.8468C217.324 43.3348 218.548 43.0788 219.86 43.0788C220.74 43.0788 221.62 43.2068 222.5 43.4628L220.196 49.3668C219.588 49.1268 218.98 49.0068 218.372 49.0068C217.428 49.0068 216.564 49.2388 215.78 49.7028C215.012 50.1508 214.396 50.7668 213.932 51.5508C213.484 52.3188 213.26 53.1748 213.26 54.1188V67.7508H207.404ZM248.064 67.7508H241.32L235.848 58.3188L232.488 62.3268V67.7508H226.632V31.7508H232.488V53.2308L240.432 43.7508H248.088L239.856 53.5668L248.064 67.7508ZM281.8 67.7508H273.568V62.7108C272.746 64.2041 271.626 65.5108 270.208 66.6308C268.789 67.7508 266.941 68.3108 264.664 68.3108C261.453 68.3108 258.858 67.2281 256.88 65.0628C254.938 62.8601 253.968 59.8174 253.968 55.9348C253.968 52.6121 254.826 49.5134 256.544 46.6388C258.261 43.7641 261.154 42.3268 265.224 42.3268C269.106 42.3268 271.888 43.8388 273.568 46.8628V32.4148H267.52V29.2228H277.488V64.5588H281.8V67.7508ZM273.568 56.7188V52.7428C273.493 50.6521 272.728 48.9534 271.272 47.6468C269.816 46.3401 268.098 45.6868 266.12 45.6868C263.357 45.6868 261.322 46.6948 260.016 48.7108C258.746 50.7268 258.112 53.0414 258.112 55.6548C258.112 58.7161 258.821 61.0308 260.24 62.5988C261.696 64.1668 263.506 64.9508 265.672 64.9508C267.912 64.9508 269.76 64.0548 271.216 62.2628C272.709 60.4334 273.493 58.5854 273.568 56.7188ZM310.91 55.2628C310.91 59.0334 309.79 62.1508 307.55 64.6148C305.31 67.0788 302.267 68.3108 298.422 68.3108C294.651 68.3108 291.683 67.1161 289.518 64.7268C287.39 62.3374 286.326 59.2574 286.326 55.4868C286.326 51.8654 287.371 48.7668 289.462 46.1908C291.553 43.5774 294.614 42.2708 298.646 42.2708C302.715 42.2708 305.777 43.5588 307.83 46.1348C309.883 48.6734 310.91 51.7161 310.91 55.2628ZM306.766 55.2068C306.766 52.3694 306.038 50.0734 304.582 48.3188C303.163 46.5268 301.147 45.6308 298.534 45.6308C295.921 45.6308 293.905 46.5454 292.486 48.3748C291.105 50.2041 290.414 52.5001 290.414 55.2628C290.414 57.9881 291.105 60.2841 292.486 62.1508C293.867 64.0174 295.883 64.9508 298.534 64.9508C301.185 64.9508 303.219 64.0361 304.638 62.2068C306.057 60.3401 306.766 58.0068 306.766 55.2068ZM356.434 46.0228H353.578L346.242 67.7508H343.218L335.602 48.7108H335.322L327.874 67.7508H324.962L317.346 46.0228H314.602V42.8308H326.362V46.0228H321.602L326.81 61.7588H327.09L334.482 42.8308H337.114L344.898 61.7588H345.178L349.77 46.0228H345.234V42.8308H356.434V46.0228ZM390.237 67.7508H377.637V64.5588H381.949V52.9668C381.949 50.2788 381.408 48.3934 380.325 47.3108C379.242 46.1908 377.861 45.6308 376.181 45.6308C373.941 45.6308 372.13 46.3774 370.749 47.8708C369.405 49.3268 368.696 51.0068 368.621 52.9108V64.5588H372.989V67.7508H360.333V64.5588H364.701V46.0228H360.221V42.8308H368.621V47.2548C370.413 43.9694 373.325 42.3268 377.357 42.3268C379.784 42.3268 381.818 43.0734 383.461 44.5668C385.104 46.0601 385.925 48.4681 385.925 51.7908V64.5588H390.237V67.7508Z" fill="#F8F8F8"/>
</svg>
