<svg width="80" height="101" viewBox="0 0 80 101" fill="none" xmlns="http://www.w3.org/2000/svg">
    <path fill-rule="evenodd" clip-rule="evenodd" d="M56.2682 86.0709C52.6778 87.6919 48.7821 88.799 44.6625 89.2887C22.9997 91.8637 3.35114 76.39 0.776148 54.7273C-1.26093 37.5899 7.99753 21.7131 22.6798 14.5527C22.6174 15.6307 22.5543 16.824 22.4998 18.0227C9.80499 24.9614 1.94296 39.1275 3.75518 54.3732C6.1346 74.3907 24.2909 88.6891 44.3083 86.3097C48.5458 85.806 52.527 84.5953 56.148 82.8096C56.1503 82.8439 56.1526 82.8781 56.1548 82.9123C56.2294 84.0573 56.2648 85.1095 56.2682 86.0709ZM69.5486 76.2787C76.7684 68.1346 80.6096 57.0602 79.2239 45.4024C76.9636 26.3876 61.5486 12.1413 43.1635 10.6841C43.9552 11.73 44.7475 12.8291 45.5378 13.9781C61.354 16.3961 74.2644 29.0953 76.2449 45.7565C77.4163 55.6119 74.5451 65.0162 68.9391 72.3085C69.1717 73.6556 69.3753 74.9803 69.5486 76.2787Z" fill="#F8F8F8"/>
    <path fill-rule="evenodd" clip-rule="evenodd" d="M57.3238 64.6943C55.8983 58.9501 53.9551 52.7621 51.4935 46.3851C46.333 33.016 40.0435 21.7929 34.2063 14.4508C31.2645 10.7505 28.6547 8.31233 26.5995 7.0084C25.3877 6.23953 24.6991 6.05725 24.4044 6.01678C24.2133 6.24477 23.8257 6.84244 23.4448 8.22614C23.0127 9.79556 22.7378 11.9074 22.695 14.5453C20.6008 15.5655 18.6168 16.763 16.7601 18.1162C16.2992 8.59867 18.074 1.96957 22.2238 0.36773C30.8462 -2.96052 46.4567 16.6748 57.091 44.2244C59.7342 51.0722 61.8212 57.7643 63.3328 64.0063C62.0731 63.0954 60.5236 62.7914 59.1196 63.3312C58.3897 63.6119 57.7834 64.0881 57.3238 64.6943ZM59.0868 73.0207C59.6211 76.1159 59.9742 79.0107 60.1463 81.6523C60.4537 86.3694 60.1589 89.9288 59.5129 92.2754C59.1319 93.6591 58.7444 94.2568 58.5533 94.4847C58.2586 94.4443 57.57 94.262 56.3581 93.4931C54.7202 92.4539 52.7299 90.6942 50.5001 88.1493C48.6133 88.667 46.6643 89.0508 44.6624 89.2887C44.355 89.3253 44.0479 89.3582 43.7413 89.3875C50.1635 97.5847 56.3513 101.825 60.7339 100.134C66.2732 97.9956 67.5807 86.8997 64.9877 71.9331C64.5129 72.6441 63.8514 73.2024 63.0354 73.5161C61.7282 74.0187 60.2949 73.7898 59.0868 73.0207ZM58.4313 94.6075L58.4321 94.6068L58.4333 94.6058C58.4349 94.6046 58.4374 94.6028 58.4409 94.6005C58.4347 94.6056 58.4314 94.6077 58.4313 94.6075ZM58.7143 94.495C58.7221 94.4938 58.7261 94.4935 58.7262 94.4937C58.7262 94.4939 58.7223 94.4945 58.7143 94.495ZM24.5264 5.89399C24.5265 5.89416 24.5233 5.89668 24.5167 5.90103C24.523 5.89599 24.5263 5.89382 24.5264 5.89399ZM24.2434 6.00655C24.2356 6.00776 24.2315 6.008 24.2315 6.00782C24.2314 6.00763 24.2353 6.00703 24.2434 6.00655Z" fill="#F8F8F8"/>
    <path d="M35.9284 51.4869C35.9284 51.4869 49.4093 57.4016 59.757 65.5441C60.3187 65.9861 61.1554 65.7315 61.363 65.0477C64.8043 53.7124 68.9284 41.4869 68.9284 41.4869" stroke="#F8F8F8" stroke-width="5"/>
    <circle cx="12.9962" cy="46.9869" r="3.5" fill="#F8F8F8"/>
    <circle cx="16.4962" cy="35.4869" r="3" fill="#F8F8F8"/>
    <circle cx="21.4962" cy="27.4869" r="2" fill="#F8F8F8"/>
</svg>
