<svg width="80" height="101" viewBox="0 0 80 101" fill="none" xmlns="http://www.w3.org/2000/svg">
<path fill-rule="evenodd" clip-rule="evenodd" d="M56.2682 86.5724C52.6778 88.1934 48.782 89.3006 44.6624 89.7903C22.9997 92.3652 3.35113 76.8916 0.776137 55.2288C-1.26094 38.0915 7.99752 22.2146 22.6798 15.0543C22.6174 16.1322 22.5543 17.3255 22.4997 18.5242C9.80498 25.4629 1.94295 39.629 3.75516 54.8747C6.13459 74.8922 24.2909 89.1907 44.3083 86.8112C48.5458 86.3075 52.527 85.0968 56.148 83.3111C56.1503 83.3454 56.1525 83.3797 56.1548 83.4138C56.2294 84.5588 56.2648 85.6111 56.2682 86.5724ZM69.5486 76.7802C76.7684 68.6361 80.6096 57.5617 79.2239 45.904C76.9636 26.8891 61.5486 12.6428 43.1635 11.1856C43.9552 12.2315 44.7475 13.3307 45.5378 14.4796C61.354 16.8976 74.2644 29.5968 76.2448 46.2581C77.4163 56.1135 74.5451 65.5177 68.9391 72.8101C69.1717 74.1571 69.3753 75.4819 69.5486 76.7802Z" fill="#212D2D"/>
<path fill-rule="evenodd" clip-rule="evenodd" d="M57.3238 65.1959C55.8983 59.4517 53.955 53.2636 51.4935 46.8866C46.333 33.5175 40.0435 22.2944 34.2063 14.9523C31.2645 11.252 28.6547 8.81386 26.5995 7.50993C25.3877 6.74105 24.6991 6.55877 24.4044 6.5183C24.2133 6.74629 23.8257 7.34396 23.4448 8.72766C23.0127 10.2971 22.7377 12.409 22.695 15.0469C20.6008 16.0671 18.6168 17.2646 16.7601 18.6177C16.2992 9.10019 18.074 2.4711 22.2238 0.869256C30.8461 -2.459 46.4567 17.1763 57.0909 44.726C59.7342 51.5737 61.8212 58.2658 63.3328 64.5078C62.0731 63.597 60.5236 63.293 59.1196 63.8328C58.3897 64.1134 57.7834 64.5896 57.3238 65.1959ZM59.0868 73.5222C59.6211 76.6174 59.9742 79.5122 60.1463 82.1538C60.4537 86.871 60.1589 90.4303 59.5129 92.7769C59.1319 94.1606 58.7444 94.7583 58.5533 94.9863C58.2586 94.9458 57.57 94.7635 56.3581 93.9947C54.7202 92.9554 52.7299 91.1957 50.5 88.6509C48.6133 89.1685 46.6643 89.5523 44.6624 89.7902C44.355 89.8268 44.0479 89.8597 43.7413 89.889C50.1635 98.0862 56.3513 102.327 60.7338 100.635C66.2732 98.4971 67.5807 87.4012 64.9877 72.4347C64.5129 73.1456 63.8514 73.7039 63.0354 74.0176C61.7282 74.5202 60.2949 74.2913 59.0868 73.5222ZM58.4313 95.1091L58.4321 95.1083L58.4333 95.1073C58.4349 95.1061 58.4374 95.1044 58.4409 95.1021C58.4347 95.1071 58.4314 95.1092 58.4313 95.1091ZM58.7143 94.9965C58.7221 94.9953 58.7261 94.9951 58.7262 94.9952C58.7262 94.9954 58.7223 94.996 58.7143 94.9965ZM24.5264 6.39552C24.5265 6.39569 24.5233 6.39821 24.5167 6.40256C24.523 6.39752 24.5263 6.39534 24.5264 6.39552ZM24.2434 6.50807C24.2356 6.50929 24.2315 6.50953 24.2315 6.50934C24.2314 6.50916 24.2353 6.50855 24.2434 6.50807Z" fill="#212D2D"/>
<path d="M35.9284 51.9884C35.9284 51.9884 49.4093 57.9031 59.757 66.0456C60.3187 66.4876 61.1554 66.233 61.363 65.5492C64.8043 54.2139 68.9284 41.9884 68.9284 41.9884" stroke="#212D2D" stroke-width="5"/>
<circle cx="12.9961" cy="47.4885" r="3.5" fill="#212D2D"/>
<circle cx="16.4961" cy="35.9885" r="3" fill="#212D2D"/>
<circle cx="21.4961" cy="27.9885" r="2" fill="#212D2D"/>
</svg>