<svg xmlns="http://www.w3.org/2000/svg" xmlns:lucid="lucid" width="356.25" height="1799.93"><g lucid:page-tab-id="0_0"><path d="M1 391.5a12 12 0 0 1 12-12h330.25a12 12 0 0 1 12 12v259.97a12 12 0 0 1-12 12H13a12 12 0 0 1-12-12z" stroke="#3a414a" stroke-width="2" fill="#fff"/><path d="M15.76 416.65a10 10 0 0 1 10-10H330.5a10 10 0 0 1 10 10v54.4a10 10 0 0 1-10 10H25.75a10 10 0 0 1-10-10z" stroke="#635dff" stroke-width="2" fill="#635dff"/><path d="M15.76 524.1a10 10 0 0 1 10-10H330.5a10 10 0 0 1 10 10v106.94a10 10 0 0 1-10 10H25.75a10 10 0 0 1-10-10z" stroke="#008a0e" stroke-width="2" fill-opacity="0"/><path d="M25.5 542.76a8 8 0 0 1 8-8h289.24a8 8 0 0 1 8 8v19.43a8 8 0 0 1-8 8H33.5a8 8 0 0 1-8-8zM25.5 596.5a8 8 0 0 1 8-8h289.24a8 8 0 0 1 8 8v19.42a8 8 0 0 1-8 8H33.5a8 8 0 0 1-8-8z" stroke="#fc9432" stroke-width="2" fill-opacity="0"/><path d="M1 769.97a12 12 0 0 1 12-12h330.25a12 12 0 0 1 12 12v260a12 12 0 0 1-12 12H13a12 12 0 0 1-12-12z" stroke="#3a414a" stroke-width="2" fill="#fff"/><path d="M15.76 795.13a10 10 0 0 1 10-10H330.5a10 10 0 0 1 10 10v54.4a10 10 0 0 1-10 10H25.75a10 10 0 0 1-10-10z" stroke="#635dff" stroke-width="2" fill="#635dff"/><path d="M15.76 902.6a10 10 0 0 1 10-10H330.5a10 10 0 0 1 10 10v106.93a10 10 0 0 1-10 10H25.75a10 10 0 0 1-10-10z" stroke="#008a0e" stroke-width="2" fill="#008a0e"/><path d="M25.5 921.25a8 8 0 0 1 8-8h289.24a8 8 0 0 1 8 8v19.43a8 8 0 0 1-8 8H33.5a8 8 0 0 1-8-8zM25.5 974.98a8 8 0 0 1 8-8h289.24a8 8 0 0 1 8 8v19.42a8 8 0 0 1-8 8H33.5a8 8 0 0 1-8-8z" stroke="#fc9432" stroke-width="2" fill="#fff"/><path d="M1 1148.46a12 12 0 0 1 12-12h330.25a12 12 0 0 1 12 12v260a12 12 0 0 1-12 12H13a12 12 0 0 1-12-12z" stroke="#3a414a" stroke-width="2" fill="#fff"/><path d="M15.76 1173.62a10 10 0 0 1 10-10H330.5a10 10 0 0 1 10 10v54.4a10 10 0 0 1-10 10H25.75a10 10 0 0 1-10-10z" stroke="#635dff" stroke-width="2" fill="#635dff"/><path d="M15.76 1281.07a10 10 0 0 1 10-10H330.5a10 10 0 0 1 10 10V1388a10 10 0 0 1-10 10H25.75a10 10 0 0 1-10-10z" stroke="#008a0e" stroke-width="2" fill="#008a0e"/><path d="M25.5 1299.74a8 8 0 0 1 8-8h289.24a8 8 0 0 1 8 8v19.42a8 8 0 0 1-8 8H33.5a8 8 0 0 1-8-8z" stroke="#fc9432" stroke-width="2" fill="#fc9432"/><path d="M25.5 1353.47a8 8 0 0 1 8-8h289.24a8 8 0 0 1 8 8v19.42a8 8 0 0 1-8 8H33.5a8 8 0 0 1-8-8z" stroke="#fc9432" stroke-width="2" fill="#fff"/><path d="M1 1526.95a12 12 0 0 1 12-12h330.25a12 12 0 0 1 12 12v259.98a12 12 0 0 1-12 12H13a12 12 0 0 1-12-12z" stroke="#3a414a" stroke-width="2" fill="#fff"/><path d="M15.76 1552.1a10 10 0 0 1 10-10H330.5a10 10 0 0 1 10 10v54.4a10 10 0 0 1-10 10H25.75a10 10 0 0 1-10-10z" stroke="#635dff" stroke-width="2" fill="#635dff"/><path d="M15.76 1659.56a10 10 0 0 1 10-10H330.5a10 10 0 0 1 10 10v106.94a10 10 0 0 1-10 10H25.75a10 10 0 0 1-10-10z" stroke="#008a0e" stroke-width="2" fill="#008a0e"/><path d="M25.5 1678.23a8 8 0 0 1 8-8h289.24a8 8 0 0 1 8 8v19.42a8 8 0 0 1-8 8H33.5a8 8 0 0 1-8-8zM25.5 1731.95a8 8 0 0 1 8-8h289.24a8 8 0 0 1 8 8v19.43a8 8 0 0 1-8 8H33.5a8 8 0 0 1-8-8z" stroke="#fc9432" stroke-width="2" fill="#fc9432"/><path d="M1 13A12 12 0 0 1 13 1h330.25a12 12 0 0 1 12 12v260a12 12 0 0 1-12 12H13a12 12 0 0 1-12-12z" stroke="#3a414a" stroke-width="2" fill="#fff"/><path d="M15.76 38.16a10 10 0 0 1 10-10H330.5a10 10 0 0 1 10 10v54.4a10 10 0 0 1-10 10H25.75a10 10 0 0 1-10-10z" stroke="#635dff" stroke-width="2" fill-opacity="0"/><path d="M15.76 145.6a10 10 0 0 1 10-10H330.5a10 10 0 0 1 10 10v106.95a10 10 0 0 1-10 10H25.75a10 10 0 0 1-10-10z" stroke="#008a0e" stroke-width="2" fill-opacity="0"/><path d="M25.5 164.28a8 8 0 0 1 8-8h289.24a8 8 0 0 1 8 8v19.42a8 8 0 0 1-8 8H33.5a8 8 0 0 1-8-8zM25.5 218a8 8 0 0 1 8-8h289.24a8 8 0 0 1 8 8v19.43a8 8 0 0 1-8 8H33.5a8 8 0 0 1-8-8z" stroke="#fc9432" stroke-width="2" fill-opacity="0"/><path d="M178.12 286.5V364" stroke="#fff" fill="none"/><path d="M178.6 286.5h-.95v-.5h.95z" stroke="#fff" stroke-width=".05" fill="#fff"/><path d="M178.12 377.5l-7.5-13h15z" stroke="#fff" fill="#fff"/><path d="M178.12 1421.95v77.5" stroke="#fff" fill="none"/><path d="M178.6 1421.96h-.95v-.5h.95z" stroke="#fff" stroke-width=".05" fill="#fff"/><path d="M178.12 1512.95l-7.5-13h15z" stroke="#fff" fill="#fff"/><path d="M178.12 664.97v77.5" stroke="#fff" fill="none"/><path d="M178.6 665h-.95v-.53h.95z" stroke="#fff" stroke-width=".05" fill="#fff"/><path d="M178.12 755.97l-7.5-13h15z" stroke="#fff" fill="#fff"/><path d="M178.12 1043.46v77.5" stroke="#fff" fill="none"/><path d="M178.6 1043.47h-.95v-.5h.95z" stroke="#fff" stroke-width=".05" fill="#fff"/><path d="M178.12 1134.46l-7.5-13h15z" stroke="#fff" fill="#fff"/></g></svg>