<svg width="150" height="151" viewBox="0 0 150 151" fill="none" xmlns="http://www.w3.org/2000/svg">
<path fill-rule="evenodd" clip-rule="evenodd" d="M91.2682 111.572C87.6778 113.193 83.7821 114.301 79.6625 114.79C57.9997 117.365 38.3511 101.892 35.7761 80.2288C33.7391 63.0915 42.9975 47.2146 57.6798 40.0543C57.6174 41.1322 57.5543 42.3255 57.4998 43.5242C44.805 50.4629 36.943 64.629 38.7552 79.8747C41.1346 99.8922 59.2909 114.191 79.3083 111.811C83.5458 111.308 87.527 110.097 91.148 108.311C91.1503 108.345 91.1526 108.38 91.1548 108.414C91.2294 109.559 91.2648 110.611 91.2682 111.572ZM104.549 101.78C111.768 93.6361 115.61 82.5617 114.224 70.904C111.964 51.8891 96.5486 37.6428 78.1635 36.1856C78.9552 37.2315 79.7475 38.3307 80.5378 39.4796C96.354 41.8976 109.264 54.5968 111.245 71.2581C112.416 81.1135 109.545 90.5177 103.939 97.8101C104.172 99.1571 104.375 100.482 104.549 101.78Z" fill="#212D2D"/>
<path fill-rule="evenodd" clip-rule="evenodd" d="M92.3238 90.1959C90.8983 84.4517 88.9551 78.2636 86.4935 71.8866C81.333 58.5175 75.0435 47.2944 69.2063 39.9523C66.2645 36.252 63.6547 33.8139 61.5995 32.5099C60.3877 31.7411 59.6991 31.5588 59.4044 31.5183C59.2133 31.7463 58.8257 32.344 58.4448 33.7277C58.0127 35.2971 57.7378 37.409 57.695 40.0469C55.6008 41.0671 53.6168 42.2646 51.7601 43.6177C51.2992 34.1002 53.074 27.4711 57.2238 25.8693C65.8462 22.541 81.4567 42.1763 92.091 69.726C94.7342 76.5737 96.8212 83.2658 98.3328 89.5078C97.0731 88.597 95.5236 88.293 94.1196 88.8328C93.3897 89.1134 92.7834 89.5896 92.3238 90.1959ZM94.0868 98.5222C94.6211 101.617 94.9742 104.512 95.1463 107.154C95.4537 111.871 95.1589 115.43 94.5129 117.777C94.1319 119.161 93.7444 119.758 93.5533 119.986C93.2586 119.946 92.57 119.764 91.3581 118.995C89.7202 117.955 87.7299 116.196 85.5001 113.651C83.6133 114.169 81.6643 114.552 79.6624 114.79C79.355 114.827 79.0479 114.86 78.7413 114.889C85.1635 123.086 91.3513 127.327 95.7339 125.635C101.273 123.497 102.581 112.401 99.9877 97.4347C99.5129 98.1456 98.8514 98.7039 98.0354 99.0176C96.7282 99.5202 95.2949 99.2913 94.0868 98.5222ZM93.4313 120.109L93.4321 120.108L93.4333 120.107C93.4349 120.106 93.4374 120.104 93.4409 120.102C93.4347 120.107 93.4314 120.109 93.4313 120.109ZM93.7143 119.997C93.7221 119.995 93.7261 119.995 93.7262 119.995C93.7262 119.995 93.7223 119.996 93.7143 119.997ZM59.5264 31.3955C59.5265 31.3957 59.5233 31.3982 59.5167 31.4026C59.523 31.3975 59.5263 31.3953 59.5264 31.3955ZM59.2434 31.5081C59.2356 31.5093 59.2315 31.5095 59.2315 31.5093C59.2314 31.5092 59.2353 31.5086 59.2434 31.5081Z" fill="#212D2D"/>
<path d="M70.9284 76.9884C70.9284 76.9884 84.4093 82.9031 94.757 91.0456C95.3187 91.4876 96.1554 91.233 96.363 90.5492C99.8043 79.2139 103.928 66.9884 103.928 66.9884" stroke="#212D2D" stroke-width="5"/>
<circle cx="47.9962" cy="72.4885" r="3.5" fill="#212D2D"/>
<circle cx="51.4962" cy="60.9885" r="3" fill="#212D2D"/>
<circle cx="56.4962" cy="52.9885" r="2" fill="#212D2D"/>
</svg>
