<svg width="367" height="101" viewBox="0 0 367 101" fill="none" xmlns="http://www.w3.org/2000/svg">
<path fill-rule="evenodd" clip-rule="evenodd" d="M55.7721 86.0709C52.1817 87.6919 48.2859 88.799 44.1663 89.2887C22.5036 91.8637 2.85499 76.39 0.279993 54.7273C-1.75708 37.5899 7.50137 21.7131 22.1837 14.5527C22.1212 15.6307 22.0582 16.824 22.0036 18.0227C9.30883 24.9614 1.44681 39.1275 3.25902 54.3732C5.63845 74.3907 23.7947 88.6891 43.8122 86.3097C48.0497 85.806 52.0309 84.5953 55.6519 82.8096C55.6541 82.8439 55.6564 82.8781 55.6586 82.9123C55.7332 84.0573 55.7687 85.1095 55.7721 86.0709ZM69.0524 76.2787C76.2723 68.1346 80.1134 57.0602 78.7277 45.4024C76.4675 26.3876 61.0525 12.1413 42.6673 10.6841C43.4591 11.73 44.2513 12.8291 45.0417 13.9781C60.8578 16.3961 73.7682 29.0953 75.7487 45.7565C76.9202 55.6119 74.049 65.0162 68.4429 72.3085C68.6756 73.6556 68.8791 74.9803 69.0524 76.2787Z" fill="#F8F8F8"/>
<path fill-rule="evenodd" clip-rule="evenodd" d="M50.9975 46.3853C45.8369 33.0162 39.547 21.7927 33.7098 14.4506C30.7681 10.7504 28.1585 8.31175 26.1033 7.00783C24.8932 6.24008 24.2043 6.06065 23.9089 6.01986C23.7174 6.24898 23.3284 6.84523 22.9484 8.22565C22.5163 9.79508 22.2415 11.9071 22.1989 14.5451C20.1047 15.5653 18.1207 16.7628 16.264 18.116C15.8031 8.59882 17.5777 1.96986 21.7272 0.367727C30.3495 -2.96053 45.9607 16.675 56.5949 44.2246L57.0864 45.514C59.4978 51.9117 61.4196 58.1565 62.8361 64.0059C61.5766 63.0954 60.0273 62.7915 58.6235 63.3312C57.8935 63.6119 57.2872 64.0882 56.8275 64.6945C55.4021 58.9503 53.459 52.7623 50.9975 46.3853ZM58.5904 73.0205C59.1246 76.1157 59.4777 79.0105 59.6498 81.6521C59.9572 86.3693 59.6629 89.9287 59.0169 92.2754C58.6366 93.6563 58.2465 94.2516 58.055 94.4806C57.7589 94.4394 57.0702 94.2598 55.8619 93.4932C54.224 92.454 52.2339 90.694 50.0041 88.1491C48.1173 88.6668 46.1682 89.0506 44.1662 89.2885C43.8588 89.3251 43.5519 89.358 43.2453 89.3873C49.6672 97.5841 55.8547 101.825 60.2371 100.134C65.7764 97.9954 67.084 86.8998 64.4912 71.9336C64.0164 72.6444 63.355 73.2024 62.5392 73.5161C61.232 74.0187 59.7985 73.7897 58.5904 73.0205Z" fill="#F8F8F8"/>
<path d="M35.4323 51.4869C35.4323 51.4869 48.9132 57.4016 59.2609 65.5441C59.8225 65.9861 60.6593 65.7315 60.8669 65.0477C64.3081 53.7124 68.4323 41.4869 68.4323 41.4869" stroke="#F8F8F8" stroke-width="5"/>
<circle cx="12.5" cy="46.9869" r="3.5" fill="#F8F8F8"/>
<circle cx="16" cy="35.4869" r="3" fill="#F8F8F8"/>
<circle cx="21" cy="27.4869" r="2" fill="#F8F8F8"/>
<path d="M140.688 68.7588L136.944 65.0628C135.632 66.0548 134.168 66.8308 132.552 67.3908C130.952 67.9508 129.264 68.2308 127.488 68.2308C125.216 68.2308 123.08 67.7828 121.08 66.8868C119.08 65.9748 117.32 64.7268 115.8 63.1428C114.28 61.5428 113.088 59.6868 112.224 57.5748C111.36 55.4628 110.928 53.2068 110.928 50.8068C110.928 48.4068 111.36 46.1588 112.224 44.0628C113.088 41.9508 114.28 40.0948 115.8 38.4948C117.32 36.8948 119.08 35.6468 121.08 34.7508C123.08 33.8388 125.216 33.3828 127.488 33.3828C129.776 33.3828 131.92 33.8388 133.92 34.7508C135.92 35.6468 137.68 36.8948 139.2 38.4948C140.72 40.0948 141.904 41.9508 142.752 44.0628C143.616 46.1588 144.048 48.4068 144.048 50.8068C144.048 52.6788 143.776 54.4628 143.232 56.1588C142.688 57.8388 141.944 59.3908 141 60.8148L144.816 64.6308L140.688 68.7588ZM127.488 62.3748C128.416 62.3748 129.328 62.2388 130.224 61.9668C131.12 61.6788 131.944 61.2788 132.696 60.7668L129.648 57.7188L133.776 53.5668L136.632 56.4468C137.144 55.6148 137.528 54.7188 137.784 53.7588C138.056 52.7988 138.192 51.8148 138.192 50.8068C138.192 49.2068 137.912 47.7108 137.352 46.3188C136.792 44.9268 136.016 43.7028 135.024 42.6468C134.048 41.5748 132.912 40.7428 131.616 40.1508C130.336 39.5428 128.96 39.2388 127.488 39.2388C126.016 39.2388 124.632 39.5428 123.336 40.1508C122.04 40.7588 120.896 41.5988 119.904 42.6708C118.928 43.7268 118.16 44.9508 117.6 46.3428C117.056 47.7348 116.784 49.2228 116.784 50.8068C116.784 52.3908 117.064 53.8868 117.624 55.2948C118.184 56.6868 118.952 57.9188 119.928 58.9908C120.92 60.0468 122.056 60.8788 123.336 61.4868C124.632 62.0788 126.016 62.3748 127.488 62.3748ZM149.352 58.8708V43.7508H155.208V57.3348C155.208 58.2788 155.44 59.1428 155.904 59.9268C156.368 60.6948 156.984 61.3108 157.752 61.7748C158.536 62.2228 159.392 62.4468 160.32 62.4468C161.28 62.4468 162.144 62.2228 162.912 61.7748C163.68 61.3108 164.296 60.6948 164.76 59.9268C165.224 59.1428 165.456 58.2788 165.456 57.3348V43.7508H171.312L171.336 67.7508H165.48L165.456 65.5668C164.624 66.4308 163.64 67.1188 162.504 67.6308C161.368 68.1268 160.152 68.3748 158.856 68.3748C157.112 68.3748 155.52 67.9508 154.08 67.1028C152.64 66.2388 151.488 65.0948 150.624 63.6708C149.776 62.2308 149.352 60.6308 149.352 58.8708ZM195.301 43.7508H201.157V67.7508H195.301L195.037 64.7748C194.381 65.8468 193.509 66.7188 192.421 67.3908C191.349 68.0468 190.077 68.3748 188.605 68.3748C186.829 68.3748 185.165 68.0388 183.613 67.3668C182.061 66.6948 180.693 65.7668 179.509 64.5828C178.341 63.3988 177.421 62.0308 176.749 60.4788C176.093 58.9268 175.765 57.2628 175.765 55.4868C175.765 53.7748 176.077 52.1668 176.701 50.6628C177.341 49.1588 178.229 47.8388 179.365 46.7028C180.501 45.5668 181.813 44.6788 183.301 44.0388C184.789 43.3988 186.389 43.0788 188.101 43.0788C189.685 43.0788 191.101 43.4308 192.349 44.1348C193.613 44.8388 194.685 45.7348 195.565 46.8228L195.301 43.7508ZM188.461 62.7348C189.709 62.7348 190.813 62.4228 191.773 61.7988C192.733 61.1748 193.485 60.3348 194.029 59.2788C194.573 58.2068 194.845 57.0308 194.845 55.7508C194.845 54.4548 194.573 53.2788 194.029 52.2228C193.485 51.1508 192.725 50.3028 191.749 49.6788C190.789 49.0548 189.693 48.7428 188.461 48.7428C187.229 48.7428 186.101 49.0628 185.077 49.7028C184.069 50.3268 183.261 51.1668 182.653 52.2228C182.061 53.2788 181.765 54.4548 181.765 55.7508C181.765 57.0468 182.069 58.2228 182.677 59.2788C183.285 60.3348 184.093 61.1748 185.101 61.7988C186.125 62.4228 187.245 62.7348 188.461 62.7348ZM207.404 67.7508L207.38 43.7508H213.236L213.26 45.8868C214.076 45.0228 215.052 44.3428 216.188 43.8468C217.324 43.3348 218.548 43.0788 219.86 43.0788C220.74 43.0788 221.62 43.2068 222.5 43.4628L220.196 49.3668C219.588 49.1268 218.98 49.0068 218.372 49.0068C217.428 49.0068 216.564 49.2388 215.78 49.7028C215.012 50.1508 214.396 50.7668 213.932 51.5508C213.484 52.3188 213.26 53.1748 213.26 54.1188V67.7508H207.404ZM248.064 67.7508H241.32L235.848 58.3188L232.488 62.3268V67.7508H226.632V31.7508H232.488V53.2308L240.432 43.7508H248.088L239.856 53.5668L248.064 67.7508ZM281.8 67.7508H273.568V62.7108C272.746 64.2041 271.626 65.5108 270.208 66.6308C268.789 67.7508 266.941 68.3108 264.664 68.3108C261.453 68.3108 258.858 67.2281 256.88 65.0628C254.938 62.8601 253.968 59.8174 253.968 55.9348C253.968 52.6121 254.826 49.5134 256.544 46.6388C258.261 43.7641 261.154 42.3268 265.224 42.3268C269.106 42.3268 271.888 43.8388 273.568 46.8628V32.4148H267.52V29.2228H277.488V64.5588H281.8V67.7508ZM273.568 56.7188V52.7428C273.493 50.6521 272.728 48.9534 271.272 47.6468C269.816 46.3401 268.098 45.6868 266.12 45.6868C263.357 45.6868 261.322 46.6948 260.016 48.7108C258.746 50.7268 258.112 53.0414 258.112 55.6548C258.112 58.7161 258.821 61.0308 260.24 62.5988C261.696 64.1668 263.506 64.9508 265.672 64.9508C267.912 64.9508 269.76 64.0548 271.216 62.2628C272.709 60.4334 273.493 58.5854 273.568 56.7188ZM310.91 55.2628C310.91 59.0334 309.79 62.1508 307.55 64.6148C305.31 67.0788 302.267 68.3108 298.422 68.3108C294.651 68.3108 291.683 67.1161 289.518 64.7268C287.39 62.3374 286.326 59.2574 286.326 55.4868C286.326 51.8654 287.371 48.7668 289.462 46.1908C291.553 43.5774 294.614 42.2708 298.646 42.2708C302.715 42.2708 305.777 43.5588 307.83 46.1348C309.883 48.6734 310.91 51.7161 310.91 55.2628ZM306.766 55.2068C306.766 52.3694 306.038 50.0734 304.582 48.3188C303.163 46.5268 301.147 45.6308 298.534 45.6308C295.921 45.6308 293.905 46.5454 292.486 48.3748C291.105 50.2041 290.414 52.5001 290.414 55.2628C290.414 57.9881 291.105 60.2841 292.486 62.1508C293.867 64.0174 295.883 64.9508 298.534 64.9508C301.185 64.9508 303.219 64.0361 304.638 62.2068C306.057 60.3401 306.766 58.0068 306.766 55.2068ZM338.613 59.3508C338.277 61.5161 337.288 63.5508 335.645 65.4548C334.04 67.3588 331.52 68.3108 328.085 68.3108C324.65 68.3108 321.906 67.2094 319.853 65.0068C317.8 62.7668 316.773 59.6494 316.773 55.6548C316.773 52.2201 317.744 49.1401 319.685 46.4148C321.626 43.6894 324.538 42.3268 328.421 42.3268C330.064 42.3268 331.576 42.5134 332.957 42.8868C334.338 43.2601 335.664 43.9321 336.933 44.9028L337.885 50.8948L334.637 51.2868L333.685 47.0868C332.192 46.1534 330.418 45.6868 328.365 45.6868C325.714 45.6868 323.81 46.6388 322.653 48.5428C321.496 50.4468 320.917 52.7428 320.917 55.4308C320.917 58.4174 321.57 60.7508 322.877 62.4308C324.184 64.1108 326.069 64.9508 328.533 64.9508C332.266 64.9508 334.506 62.8414 335.253 58.6228L338.613 59.3508ZM364.536 60.5268C364.536 62.9534 363.509 64.8574 361.456 66.2388C359.44 67.6201 356.939 68.3108 353.952 68.3108C352.197 68.3108 350.443 68.0868 348.688 67.6388C346.971 67.1534 345.571 66.5561 344.488 65.8468L345.272 60.1908L348.408 60.5268L348.24 63.8308C349.957 64.6521 351.805 65.0628 353.784 65.0628C355.539 65.0628 357.088 64.7268 358.432 64.0548C359.813 63.3454 360.504 62.2814 360.504 60.8628C360.504 59.4814 359.981 58.5108 358.936 57.9508C357.891 57.3908 356.584 56.9801 355.016 56.7188C353.485 56.4574 351.936 56.1401 350.368 55.7668C348.8 55.3934 347.493 54.7588 346.448 53.8628C345.403 52.9294 344.88 51.4921 344.88 49.5508C344.88 46.9001 345.851 45.0334 347.792 43.9508C349.733 42.8681 351.843 42.3268 354.12 42.3268C355.837 42.3268 357.443 42.5508 358.936 42.9988C360.467 43.4468 361.755 43.9881 362.8 44.6228L363.416 50.4468L360.168 50.8388L359.552 46.8068C357.984 45.9854 356.285 45.5748 354.456 45.5748C352.888 45.5748 351.6 45.8734 350.592 46.4708C349.584 47.0681 349.08 48.0014 349.08 49.2708C349.08 50.5774 349.603 51.5108 350.648 52.0708C351.693 52.5934 352.981 52.9854 354.512 53.2468C356.043 53.4708 357.573 53.7694 359.104 54.1428C360.635 54.5161 361.923 55.1881 362.968 56.1588C364.013 57.0921 364.536 58.5481 364.536 60.5268Z" fill="#F8F8F8"/>
</svg>
