<svg width="591" height="139" viewBox="0 0 591 139" fill="none" xmlns="http://www.w3.org/2000/svg">
<rect width="591" height="139" transform="translate(0.00384521)" fill="#2C212D"/>
<path d="M151.084 111.709C151.031 111.728 150.978 111.747 150.924 111.766C150.978 111.747 151.031 111.728 151.084 111.709ZM145.624 27.3418C159.523 25.6896 173.042 43.2911 175.819 66.6553L175.941 67.748C178.194 89.4899 170.239 108.323 157.719 111.564C158.559 110.382 159.207 109.032 159.702 107.602C163.441 105.662 166.779 101.813 169.262 96.2266C172.652 88.6024 174.176 78.2482 172.84 67.0088C171.504 55.7695 167.596 46.0614 162.513 39.4443C157.386 32.7685 151.457 29.6692 145.978 30.3203C144.352 30.5136 142.765 31.0397 141.248 31.8818C140.739 31.0013 140.228 30.1391 139.714 29.2969C141.558 28.2603 143.535 27.59 145.624 27.3418ZM151.94 111.381C151.859 111.417 151.778 111.451 151.695 111.483C151.778 111.451 151.859 111.417 151.94 111.381ZM152.18 111.267C152.123 111.296 152.065 111.323 152.007 111.35C152.065 111.323 152.123 111.296 152.18 111.267ZM152.396 111.151C152.356 111.174 152.314 111.196 152.273 111.218C152.314 111.196 152.356 111.174 152.396 111.151ZM152.629 111.013C152.592 111.036 152.554 111.058 152.517 111.08C152.554 111.058 152.592 111.036 152.629 111.013ZM152.846 110.867C152.813 110.89 152.78 110.913 152.747 110.936C152.78 110.913 152.813 110.89 152.846 110.867ZM153.091 110.688C153.047 110.722 153.003 110.756 152.959 110.789C153.003 110.756 153.047 110.722 153.091 110.688ZM153.293 110.524C153.249 110.561 153.206 110.597 153.162 110.632C153.206 110.597 153.249 110.561 153.293 110.524ZM153.437 110.397C153.419 110.414 153.4 110.432 153.382 110.448C153.4 110.432 153.419 110.414 153.437 110.397ZM153.963 109.866C153.929 109.904 153.896 109.94 153.862 109.977C153.896 109.94 153.929 109.904 153.963 109.866ZM154.146 109.648C154.113 109.689 154.08 109.728 154.047 109.768C154.08 109.728 154.113 109.689 154.146 109.648ZM154.327 109.421C154.298 109.459 154.268 109.497 154.238 109.534C154.268 109.497 154.298 109.459 154.327 109.421ZM154.51 109.168C154.481 109.21 154.452 109.251 154.423 109.292C154.452 109.251 154.481 109.21 154.51 109.168ZM154.567 109.086C154.579 109.069 154.59 109.051 154.602 109.033L154.604 109.032C154.592 109.05 154.579 109.068 154.567 109.086ZM142.228 103.685C142.031 103.738 141.832 103.79 141.633 103.84C141.832 103.79 142.03 103.736 142.227 103.684L142.228 103.685ZM129.983 40.3936C130.58 41.4625 131.176 42.5656 131.767 43.7012C128.571 51.2604 127.165 61.3536 128.465 72.2842C129.801 83.5234 133.709 93.2316 138.792 99.8486C138.91 100.003 139.03 100.154 139.149 100.305C138.165 100.507 137.163 100.672 136.145 100.793C136.023 100.808 135.906 100.827 135.797 100.85C130.811 94.0092 127.071 84.516 125.624 73.7285L125.486 72.6377C124.014 60.2507 125.855 48.7304 129.983 40.3936Z" fill="url(#paint0_linear_144_543)"/>
<path d="M147.08 97.6809C149.475 96.7603 152.293 98.2934 153.374 101.106C154.456 103.918 153.391 106.945 150.996 107.865C148.602 108.786 145.784 107.252 144.703 104.44C143.621 101.627 144.686 98.6016 147.08 97.6809Z" fill="url(#paint1_linear_144_543)"/>
<path d="M196.337 60.9367C198.281 68.6861 179.786 80.0064 155.026 86.2211L153.867 86.5065C129.593 92.3947 108.586 91.0706 106.671 83.4427L106.629 83.2604C105.828 79.4179 109.955 74.7268 117.318 70.2214C117.196 71.7936 117.183 73.3905 117.283 75.004C114.845 76.6693 113.057 78.2434 111.913 79.6356C110.399 81.4781 110.517 82.3377 110.55 82.4688C110.584 82.6011 110.887 83.4139 113.089 84.3222C115.205 85.1946 118.374 85.8362 122.522 86.0745C130.767 86.5483 141.953 85.3784 154.052 82.3416C166.151 79.3048 176.563 75.0535 183.607 70.7422C187.15 68.5738 189.64 66.5116 191.093 64.7436C192.607 62.9014 192.489 62.0418 192.456 61.9104C192.423 61.7793 192.122 60.9662 189.918 60.0571C188.222 59.3581 185.85 58.8074 182.841 58.4934C182.168 57.0345 181.395 55.6354 180.536 54.3015C189.385 54.7839 195.358 57.0357 196.337 60.9367Z" fill="url(#paint2_linear_144_543)"/>
<path d="M126.889 61.8369C126.889 61.8369 140.37 67.7516 150.718 75.8941C151.28 76.336 152.116 76.0815 152.324 75.3976C155.765 64.0624 159.889 51.8369 159.889 51.8369" stroke="url(#paint3_linear_144_543)" stroke-width="5"/>
<circle cx="136.374" cy="53.5471" r="3.5" transform="rotate(10.5144 136.374 53.5471)" fill="url(#paint4_linear_144_543)"/>
<circle cx="140.874" cy="42.5314" r="3" transform="rotate(10.5144 140.874 42.5314)" fill="url(#paint5_linear_144_543)"/>
<circle cx="148.289" cy="35.9256" r="2" transform="rotate(10.5144 148.289 35.9256)" fill="url(#paint6_linear_144_543)"/>
<path d="M248.213 63H254.069V87H248.213L247.949 84.024C247.293 85.096 246.421 85.968 245.333 86.64C244.261 87.296 242.989 87.624 241.517 87.624C239.741 87.624 238.077 87.288 236.525 86.616C234.973 85.944 233.605 85.016 232.421 83.832C231.253 82.648 230.333 81.28 229.661 79.728C229.005 78.176 228.677 76.512 228.677 74.736C228.677 73.024 228.989 71.416 229.613 69.912C230.253 68.408 231.141 67.088 232.277 65.952C233.413 64.816 234.725 63.928 236.213 63.288C237.701 62.648 239.301 62.328 241.013 62.328C242.597 62.328 244.013 62.68 245.261 63.384C246.525 64.088 247.597 64.984 248.477 66.072L248.213 63ZM241.373 81.984C242.621 81.984 243.725 81.672 244.685 81.048C245.645 80.424 246.397 79.584 246.941 78.528C247.485 77.456 247.757 76.28 247.757 75C247.757 73.704 247.485 72.528 246.941 71.472C246.397 70.4 245.637 69.552 244.661 68.928C243.701 68.304 242.605 67.992 241.373 67.992C240.141 67.992 239.013 68.312 237.989 68.952C236.981 69.576 236.173 70.416 235.565 71.472C234.973 72.528 234.677 73.704 234.677 75C234.677 76.296 234.981 77.472 235.589 78.528C236.197 79.584 237.005 80.424 238.013 81.048C239.037 81.672 240.157 81.984 241.373 81.984ZM260.291 87V63H266.147V65.136C266.963 64.272 267.939 63.592 269.075 63.096C270.211 62.584 271.435 62.328 272.747 62.328C274.411 62.328 275.939 62.72 277.331 63.504C278.739 64.288 279.859 65.336 280.691 66.648C281.539 65.336 282.659 64.288 284.051 63.504C285.443 62.72 286.971 62.328 288.635 62.328C290.395 62.328 291.987 62.76 293.411 63.624C294.851 64.472 295.995 65.616 296.843 67.056C297.707 68.48 298.139 70.072 298.139 71.832V87H292.283V73.392C292.283 72.464 292.051 71.616 291.587 70.848C291.139 70.064 290.531 69.44 289.763 68.976C289.011 68.496 288.163 68.256 287.219 68.256C286.275 68.256 285.419 68.488 284.651 68.952C283.899 69.4 283.291 70.008 282.827 70.776C282.363 71.544 282.131 72.416 282.131 73.392V87H276.275V73.392C276.275 72.416 276.051 71.544 275.603 70.776C275.155 70.008 274.547 69.4 273.779 68.952C273.011 68.488 272.155 68.256 271.211 68.256C270.283 68.256 269.435 68.496 268.667 68.976C267.899 69.44 267.283 70.064 266.819 70.848C266.371 71.616 266.147 72.464 266.147 73.392V87H260.291ZM317.296 62.328C319.632 62.328 321.76 62.896 323.68 64.032C325.6 65.168 327.128 66.696 328.264 68.616C329.4 70.52 329.968 72.632 329.968 74.952C329.968 76.696 329.64 78.336 328.984 79.872C328.328 81.408 327.416 82.76 326.248 83.928C325.096 85.08 323.752 85.984 322.216 86.64C320.696 87.296 319.056 87.624 317.296 87.624C315.792 87.624 314.456 87.288 313.288 86.616C312.136 85.928 311.168 85.04 310.384 83.952V87H304.528V51H310.384V66C311.168 64.912 312.136 64.032 313.288 63.36C314.456 62.672 315.792 62.328 317.296 62.328ZM317.224 81.96C318.472 81.96 319.6 81.648 320.608 81.024C321.632 80.384 322.448 79.536 323.056 78.48C323.664 77.424 323.968 76.248 323.968 74.952C323.968 73.672 323.664 72.504 323.056 71.448C322.448 70.376 321.632 69.528 320.608 68.904C319.584 68.28 318.456 67.968 317.224 67.968C316.008 67.968 314.92 68.288 313.96 68.928C313 69.552 312.248 70.4 311.704 71.472C311.16 72.528 310.888 73.688 310.888 74.952C310.888 76.248 311.16 77.432 311.704 78.504C312.248 79.56 313 80.4 313.96 81.024C314.92 81.648 316.008 81.96 317.224 81.96ZM345.825 87.624C343.617 87.624 341.601 87.056 339.777 85.92C337.969 84.784 336.521 83.256 335.433 81.336C334.361 79.416 333.825 77.296 333.825 74.976C333.825 73.232 334.137 71.6 334.761 70.08C335.385 68.544 336.241 67.2 337.329 66.048C338.433 64.88 339.713 63.968 341.169 63.312C342.625 62.656 344.177 62.328 345.825 62.328C347.697 62.328 349.409 62.728 350.961 63.528C352.529 64.312 353.857 65.392 354.945 66.768C356.033 68.144 356.825 69.712 357.321 71.472C357.817 73.232 357.929 75.072 357.657 76.992H340.113C340.337 77.888 340.705 78.696 341.217 79.416C341.729 80.12 342.377 80.688 343.161 81.12C343.945 81.536 344.833 81.752 345.825 81.768C346.849 81.784 347.777 81.544 348.609 81.048C349.457 80.536 350.161 79.848 350.721 78.984L356.697 80.376C355.721 82.504 354.265 84.248 352.329 85.608C350.393 86.952 348.225 87.624 345.825 87.624ZM339.921 72.6H351.729C351.553 71.64 351.177 70.776 350.601 70.008C350.041 69.224 349.345 68.6 348.513 68.136C347.681 67.672 346.785 67.44 345.825 67.44C344.865 67.44 343.977 67.672 343.161 68.136C342.345 68.584 341.649 69.2 341.073 69.984C340.513 70.752 340.129 71.624 339.921 72.6ZM363.026 87L363.002 63H368.858L368.882 65.136C369.698 64.272 370.674 63.592 371.81 63.096C372.946 62.584 374.17 62.328 375.482 62.328C376.362 62.328 377.242 62.456 378.122 62.712L375.818 68.616C375.21 68.376 374.602 68.256 373.994 68.256C373.05 68.256 372.186 68.488 371.402 68.952C370.634 69.4 370.018 70.016 369.554 70.8C369.106 71.568 368.882 72.424 368.882 73.368V87H363.026ZM383.222 87V80.952H388.654V87H383.222ZM422.027 87H410.267V83.808H414.019L407.187 75.352H402.763V83.808H406.347V87H394.475V83.808H398.787V51.664H394.363V48.472H402.763V72.328H407.243L412.955 65.272H409.091V62.08H420.739V65.272H416.931L410.267 73.504L418.499 83.808H422.027V87ZM444.793 80.28C444.121 85.1333 441.489 87.56 436.897 87.56C434.395 87.56 432.473 86.8507 431.129 85.432C429.822 84.0133 429.169 82.0907 429.169 79.664V65.216H425.137V62.08H429.169V54.072H433.089V62.08H442.833V65.216H433.089V79.16C433.089 80.6533 433.406 81.8667 434.041 82.8C434.713 83.696 435.795 84.144 437.289 84.144C438.259 84.144 439.155 83.8453 439.977 83.248C440.835 82.6507 441.451 81.344 441.825 79.328L444.793 80.28Z" fill="url(#paint7_linear_144_543)"/>
<defs>
<linearGradient id="paint0_linear_144_543" x1="124.984" y1="69.5" x2="176.322" y2="69.5" gradientUnits="userSpaceOnUse">
<stop stop-color="#FFC493"/>
<stop offset="1" stop-color="#FFF0B3"/>
</linearGradient>
<linearGradient id="paint1_linear_144_543" x1="144.28" y1="102.773" x2="153.797" y2="102.773" gradientUnits="userSpaceOnUse">
<stop stop-color="#FFC493"/>
<stop offset="1" stop-color="#FFF0B3"/>
</linearGradient>
<linearGradient id="paint2_linear_144_543" x1="154.121" y1="50.9205" x2="148.886" y2="93.4591" gradientUnits="userSpaceOnUse">
<stop stop-color="#FFC493"/>
<stop offset="1" stop-color="#FFF0B3"/>
</linearGradient>
<linearGradient id="paint3_linear_144_543" x1="127.099" y1="65.8457" x2="160.532" y2="64.0936" gradientUnits="userSpaceOnUse">
<stop stop-color="#FFC493"/>
<stop offset="1" stop-color="#FFF0B3"/>
</linearGradient>
<linearGradient id="paint4_linear_144_543" x1="132.874" y1="53.5471" x2="139.874" y2="53.5471" gradientUnits="userSpaceOnUse">
<stop stop-color="#FFC493"/>
<stop offset="1" stop-color="#FFF0B3"/>
</linearGradient>
<linearGradient id="paint5_linear_144_543" x1="137.874" y1="42.5314" x2="143.874" y2="42.5314" gradientUnits="userSpaceOnUse">
<stop stop-color="#FFC493"/>
<stop offset="1" stop-color="#FFF0B3"/>
</linearGradient>
<linearGradient id="paint6_linear_144_543" x1="146.289" y1="35.9256" x2="150.289" y2="35.9256" gradientUnits="userSpaceOnUse">
<stop stop-color="#FFC493"/>
<stop offset="1" stop-color="#FFF0B3"/>
</linearGradient>
<linearGradient id="paint7_linear_144_543" x1="227.237" y1="67.5" x2="445.237" y2="67.5" gradientUnits="userSpaceOnUse">
<stop stop-color="#FFC493"/>
<stop offset="1" stop-color="#FFF0B3"/>
</linearGradient>
</defs>
</svg>
