<svg width="1024" height="1024" viewBox="0 0 1024 1024" fill="none" xmlns="http://www.w3.org/2000/svg">
<g filter="url(#filter0_d_617_1067)">
<path d="M359.253 179.38C353.62 157.325 354.526 144.52 371.187 120.033C329.46 141.017 314.028 156.743 291.861 187.456C301.88 201.574 298.969 208.076 300.313 226.523C301.057 236.717 303.215 242.581 311.651 250.346C324.078 215.435 334.028 199.34 359.253 179.38Z" fill="white" stroke="black" stroke-width="6"/>
<path d="M343.694 147.211C342.833 160.384 343.234 167.47 347.637 178.866M328.863 159.771C328.845 171.225 329.953 177.111 334.546 186.371M313.224 173.955C315.45 182.462 317.565 187.929 324.521 200.234M308.586 203.282C311.491 207.998 312.384 210.951 313.502 216.407" stroke="black" stroke-width="6" stroke-linecap="round"/>
</g>
<g filter="url(#filter1_d_617_1067)">
<path d="M827.373 787.938C818.589 756.406 830.566 726.35 828.563 678.136C773.097 738.912 750.63 732.539 709.642 789.311C721.198 839.004 728.872 864.583 746.394 902.779C769.55 849.474 789.243 826.289 827.373 787.938Z" fill="white" stroke="black" stroke-width="8"/>
<path d="M745.113 858.832L738.564 828.055L756.245 812.993L764.758 836.567L745.113 858.832Z" fill="#A9C0C0"/>
<path d="M806.667 721.316C800.277 750.661 802.484 763.858 808.632 786.145M778.509 746.855C778.509 763.881 781.489 779.557 788.987 801.206M758.21 771.739C759.985 781.647 761.958 787.054 764.103 793.348M738.564 828.055L745.113 858.832L764.758 836.567L756.245 812.993L738.564 828.055Z" stroke="black" stroke-width="8" stroke-linecap="round" stroke-linejoin="round"/>
</g>
<g filter="url(#filter2_d_617_1067)">
<path d="M874.814 222.691L858.599 150.779C878.227 156.212 889.217 159.225 911.328 170.1C918.184 204.544 928.306 227.806 935.421 245.804C928.554 244.809 922.405 243.395 916.294 241.454C917.505 247.283 918.603 253.397 919.639 260.018C906.067 244.892 894.715 236.933 874.814 222.691Z" fill="white"/>
<path d="M858.599 150.779L874.814 222.691C894.715 236.933 906.067 244.892 919.639 260.018C918.603 253.397 917.505 247.283 916.294 241.454M858.599 150.779C878.227 156.212 889.217 159.225 911.328 170.1C918.184 204.544 928.306 227.806 935.421 245.804C928.554 244.809 922.405 243.395 916.294 241.454M858.599 150.779C871.909 164.402 878.801 173.564 895.751 177.458C905.824 202.33 911.828 219.955 916.294 241.454" stroke="black" stroke-width="6" stroke-linecap="round" stroke-linejoin="round"/>
<path d="M874.14 223.213L857.406 149C871.143 163.059 878.255 172.514 895.747 176.533C906.143 202.201 912.339 220.39 916.948 242.577C918.198 248.593 919.331 254.903 920.4 261.736C906.393 246.125 894.678 237.912 874.14 223.213Z" fill="#547070" stroke="black" stroke-width="6" stroke-linecap="round" stroke-linejoin="round"/>
</g>
<g filter="url(#filter3_d_617_1067)">
<path d="M146.802 736.302C188.866 777.508 219.806 799.678 331.355 832.075C326.027 840.571 321.589 848.393 317.96 855.834C302.84 886.841 301.789 911.209 309.049 949.969C222.754 934.664 176.977 916.875 104.722 851.911C103.553 816.982 114.135 792.618 134.356 757.467C138.167 750.843 142.32 743.835 146.802 736.302Z" fill="white"/>
<path d="M317.96 855.834C321.589 848.393 326.027 840.571 331.355 832.075C219.806 799.678 188.866 777.508 146.802 736.302C142.32 743.835 138.167 750.843 134.356 757.467M317.96 855.834C302.84 886.841 301.789 911.209 309.049 949.969C222.754 934.664 176.977 916.875 104.722 851.911C103.553 816.982 114.135 792.618 134.356 757.467M317.96 855.834C217.848 821.647 168.476 801.474 134.356 757.467" stroke="black" stroke-width="8" stroke-linecap="round" stroke-linejoin="round"/>
<path d="M225.878 897.46L237.218 874.548L245.846 879.737L235.518 900.814L243.291 903.519L259.845 868.184L268.473 873.373L253.979 907.237L261.752 909.942L284.891 859.75L293.519 864.94L272.439 913.66L261.752 909.942L253.979 907.237L243.291 903.519L235.518 900.814L225.878 897.46Z" fill="#A9C0C0"/>
<path d="M239.151 843.987L235.775 852.097M278.269 915.688L272.439 913.66M225.878 897.46L237.218 874.548L245.846 879.737L235.518 900.814M235.518 900.814L218.029 894.729L219.093 892.175M235.518 900.814L243.291 903.519M243.291 903.519L259.845 868.184L268.473 873.373L253.979 907.237M243.291 903.519L253.979 907.237M253.979 907.237L261.752 909.942M261.752 909.942L284.891 859.75L293.519 864.94L272.439 913.66M261.752 909.942L272.439 913.66M219.093 892.175L215.499 890.399M219.093 892.175L222.723 883.453M222.723 883.453L219.08 881.262M222.723 883.453L226.634 874.057M226.634 874.057L223.407 872.115M226.634 874.057L230.828 863.981M230.828 863.981L227.39 861.587M230.828 863.981L235.775 852.097M235.775 852.097L232.946 850.395" stroke="black" stroke-width="4" stroke-linecap="round"/>
<path d="M212.604 903.2C234.379 912.284 246.739 916.752 269.077 923.353M213.171 909.675C230.543 917.708 242.248 921.451 263.946 927.817" stroke="black" stroke-width="4" stroke-linecap="round"/>
<path d="M126.724 810.836C140.533 824.153 150.845 830.955 170.62 842.128M122.571 820.736C135.293 832.245 144.193 838.703 164.3 850.21M119.091 832.584C132.97 846.472 144.038 851.918 161.903 862.967M116.694 845.342C123.584 852.543 128.044 854.915 135.977 859.213" stroke="black" stroke-width="4" stroke-linecap="round"/>
<path d="M197.63 886.944L200.555 851.554L171.741 872.145L197.63 886.944Z" fill="#A9C0C0" stroke="black" stroke-width="4" stroke-linecap="round"/>
<path d="M159.443 800.444C166.263 799.847 171.825 804.287 172.312 809.857C172.8 815.428 168.094 820.767 161.274 821.364C154.453 821.961 148.891 817.521 148.404 811.95C147.916 806.379 152.622 801.041 159.443 800.444Z" fill="#A9C0C0" stroke="black" stroke-width="4"/>
<path d="M158.82 810.536L167.176 802.778L170.382 805.007L172.356 810.356L171.752 814.926L169.48 817.634L166.124 819.434L158.82 810.536Z" fill="#547070" stroke="black" stroke-width="4" stroke-linecap="round"/>
</g>
<g filter="url(#filter4_d_617_1067)">
<path d="M928 440.5L932.5 429C942.275 443.503 956.196 452.457 987 469C974.47 521.328 968.457 554.662 952 591.5L940.5 587" stroke="black" stroke-width="8" stroke-linecap="round"/>
<path d="M877 565.5C899.33 515.088 908.954 486.921 916.5 437C940.366 453.809 954.111 457.969 979 460C967.364 516.681 960.227 547.947 936.5 594.5C910.65 591.266 897.891 584.073 877 565.5Z" fill="white" stroke="black" stroke-width="8" stroke-linecap="round"/>
<path d="M959.5 480C949.64 520.891 943.523 542.449 929 572.5M944 473.5C934.495 512.512 928.238 532.543 911.5 565M927 467C925.5 479.5 915.5 513 911.5 521" stroke="black" stroke-width="8" stroke-linecap="round"/>
</g>
<g filter="url(#filter5_d_617_1067)">
<path d="M561 98.4444C584.495 86.9804 596.578 77.5226 617.178 58C627.421 77.2799 631.946 88.7102 634 112.143C612.512 130.047 600.591 137.456 579.409 149C578.472 129.246 573.748 118.185 561 98.4444Z" fill="white"/>
<path d="M561 98.4444C584.495 86.9804 596.578 77.5226 617.178 58M561 98.4444C573.748 118.185 578.472 129.246 579.409 149C600.591 137.456 612.512 130.047 634 112.143C631.946 88.7102 627.421 77.2799 617.178 58M561 98.4444C574.755 103.646 582.456 106.479 595.596 106.272C598.992 86.9777 605.667 76.5814 617.178 58" stroke="black" stroke-width="6" stroke-linecap="round"/>
</g>
<g filter="url(#filter6_d_617_1067)">
<path d="M148.303 348.8C146.626 391.064 150.466 405.689 153.042 442.221L108.02 578.445C86.2421 523.15 57.5218 494.211 50.4958 458.416C78.1323 433.194 106.9 403.468 148.303 348.8Z" fill="white" stroke="black" stroke-width="8" stroke-linecap="round"/>
<path d="M153.432 442.66C146.803 428.133 126.426 382.786 113.023 364.148C92.318 427.914 63.1578 467.31 41.275 487.069C67.5264 513.102 88.9469 541.204 108.702 580.981L153.432 442.66Z" fill="#547070" stroke="black" stroke-width="8" stroke-linecap="round"/>
</g>
<g filter="url(#filter7_d_617_1067)">
<path d="M355.161 605.455C378.888 607.896 399.111 606.762 397.437 610.979C395.763 615.195 387.07 617.017 381.486 619.611C377.34 622.299 368.209 621.973 366.989 621.897C356.795 624.176 351.207 625.45 342.178 627.717C332.113 627.328 326.571 626.877 317.113 625.076C301.878 627.174 293.532 627.822 279.612 626.364C266.776 622.626 260.051 620.058 250.39 613.151C242.642 611.471 238.27 610.298 230.259 606.353C222.617 599.926 220.406 595.884 217.291 588.502C204.835 581.365 198.603 576.511 191.901 562.829C187.939 541.705 188.631 530.281 191.784 510.181C194.842 502.021 197.23 497.648 202.088 490.036C203.144 480.516 204.22 475.405 208.417 467.389C220.361 451.178 226.218 441.792 235.595 424.666C246.27 415.043 251.311 409.225 257.329 397.538C256.937 389.701 257.036 385.423 259.997 378.811C264.786 370.542 267.925 366.059 275.113 358.584C277.649 346.771 279.744 340.471 288.072 331.465C297.416 323.956 302.675 319.753 316.86 313.968C323.513 310.286 326.687 307.707 331.878 302.672C341.615 291.048 347.295 284.55 362.873 273.421C379.636 261.957 390.614 255.722 414.679 245.169C418.586 241.494 420.855 239.504 425.321 236.306C434.396 231.735 438.246 230.247 439.527 232.454C439.638 235.66 439.602 237.46 434.472 240.685C428.946 244.349 426.019 245.623 420.848 247.67C416.738 250.979 414.499 252.858 412.472 256.923C409.524 267.23 405.888 271.852 397.719 279.108C389.248 283.26 384.731 286.179 377.622 293.777C372.732 302.202 371.821 306.642 371.354 314.388C362.872 329.172 356.856 336.668 345.413 349.588C340.092 359.934 337.095 365.726 330.394 375.064C327.462 386.784 325.47 393.056 319.131 401.869C308.345 407.824 303.265 412.135 296.585 422.259C294.895 428.445 294.14 432.073 294.62 440.046C290.667 450.971 288.301 456.973 282.364 466.224C279.122 480.544 278.46 489.114 278.592 505.008C282.935 514.813 285.353 520.303 285.292 529.289C284.376 533.421 283.913 535.731 282.443 539.947C283.241 545.548 283.446 548.747 286.757 553.732C291.718 560.401 295.705 563.712 304.1 569.15C307.164 576.776 310.293 580.276 317.274 585.747C332.75 588.355 340.578 590.329 348.823 597.313C351.555 602.857 352.893 604.177 355.161 605.455Z" fill="#799B9C"/>
<path d="M562.908 743.543C544.959 751.1 540.544 757.822 540.022 766.832C545.221 773.565 552.322 772.062 564.105 771.276C577.797 766.978 585.128 764.487 593.414 758.949C605.251 753.623 611.788 750.719 620.747 747.799C632.278 738.983 638.19 734.103 646.044 725.682C664.602 714.54 679.292 708.572 694.735 697.198C707.281 688.045 712.11 682.262 719.378 671.556C721.888 664.96 723.381 661.31 727.864 655.801C733.883 652.016 737.052 649.817 741.755 645.525C749.859 637.759 754.056 633.012 759.331 622.005C762.78 612.161 764.299 606.64 766.497 596.772C767.097 591.363 767.038 588.807 764.328 587.451C761.89 586.23 760.203 586.367 755.286 590.749C746.69 601.132 741.879 606.763 733.394 614.665C718.844 623.534 714.283 627.461 707.588 634.04C703.481 642.363 701.169 646.976 696.423 651.913C690.393 655.348 686.071 654.533 677.769 657.806C654.248 667.079 645.264 675.597 630 686.524C613.362 697.35 604.398 704.991 589.126 721.66C587.012 728.127 585.616 731.688 580.144 737.103C575.284 739.571 572.308 739.585 562.908 743.543Z" fill="#799B9C"/>
<path d="M571.017 449.115C579.713 437.799 580.489 430.387 579.068 416.829C578.205 408.602 585.591 429.007 584.617 437.272C584.15 441.237 582.432 443.22 581.622 447.146C581.09 449.728 581.641 451.329 580.664 453.807C579.261 457.367 576.545 458.372 574.191 461.49C571.075 465.619 570.437 468.615 567.027 472.544C562.572 477.678 558.2 478.844 553.282 483.603C546.851 489.824 546.701 496.436 539.002 501.244C532.324 505.414 526.475 503.314 519.427 506.903C514.092 509.619 512.295 512.878 507.015 515.689C499.563 519.655 494.318 519.542 486.312 522.367C479.688 524.704 474.296 530.789 467.452 529.514C465.089 529.073 464.119 528.106 463.828 526.54C463.284 523.609 469.186 522.304 468.52 516.351C461.72 515.182 459.065 515.624 453.308 517.148C449.635 518.121 447.967 519.718 444.339 520.839C439.676 522.28 436.911 523.019 432.036 523.122C423.008 523.312 419.118 517.753 410.208 516.639C406.265 516.147 403.869 516.973 400.014 516.1C395.051 514.976 392.479 513.412 388.452 510.548C385.131 508.187 383.334 506.642 380.986 503.426C377.5 498.65 378.412 494.635 375.751 489.407C374.023 486.011 372.085 484.56 370.686 481.029C369.077 476.968 368.367 474.428 368.65 470.062C368.859 466.847 369.62 465.084 370.663 461.991C372.657 456.077 376.682 453.689 378.094 447.647C379.366 442.202 377.123 438.956 378.095 433.466C379.199 427.234 380.678 423.733 384.036 418.183C387.821 411.926 393.076 410.37 396.775 404.07C399.33 399.719 400.767 397.09 401.6 392.235C402.168 388.928 400.812 386.934 401.771 383.695C402.696 380.572 404.129 379.088 406.123 376.405C409.45 371.927 413.207 370.837 416.547 366.367C419.674 362.185 419.694 358.934 422.718 354.688C426.267 349.704 428.259 346.395 433.772 343.318C438.46 340.702 442.156 341.712 447.13 339.624C454.469 336.542 458.102 333.618 463.918 328.405C470.856 322.185 471.231 315.812 478.476 309.902C482.259 306.816 484.767 305.511 489.058 303.076C494.204 300.155 497.489 299.208 502.754 296.483C507.172 294.196 509.376 292.44 513.906 290.361C519.016 288.016 522.393 287.824 527.469 285.413C533.034 282.771 536.098 281.018 540.875 277.253C544.877 274.098 546.019 271.215 550.172 268.235C553.882 265.573 556.854 265.343 560.548 262.663C563.452 260.555 564.497 258.756 567.312 256.546C569.348 254.946 570.582 254.152 572.742 252.702C576.331 250.292 578.197 248.637 582.197 246.895C590.208 243.407 596.109 246.596 604.475 243.976C609.266 242.476 611.932 241.402 616.268 238.951C621.304 236.105 625.299 233.224 626.257 226.564C618.282 216.699 603.202 222.107 593.483 224.948C586.349 227.034 583.05 230.006 575.968 232.251C570.024 234.135 566.386 234.138 560.417 235.947C554.351 237.786 550.909 238.859 545.229 241.602C533.962 247.044 530.018 253.495 519.775 260.506C511.241 266.348 506.987 270.623 497.411 274.786C492.58 276.886 489.337 276.855 484.624 279.185C478.918 282.005 474.686 283.33 471.436 288.52C469.866 291.027 470.114 292.878 468.781 295.495C466.624 299.73 465.343 302.43 461.398 305.374C458.113 307.825 455.176 307.47 451.653 309.613C446.041 313.027 445.162 317.454 439.75 321.141C436.405 323.419 433.997 323.912 430.574 326.085C426.233 328.842 423.524 330.289 420.21 334.086C417.546 337.139 417.074 339.476 414.804 342.787C412.736 345.804 412.206 348.096 409.179 350.313C406.188 352.505 403.385 351.771 400.137 353.612C396.55 355.646 394.961 357.429 392.173 360.357C386.392 366.431 384.366 370.932 381.506 378.543C379.224 384.613 381.258 388.958 377.905 394.607C374.717 399.977 369.963 400.875 365.928 405.743C361.725 410.815 359.508 413.95 357.152 419.932C354.74 426.058 356.09 430.076 354.048 436.309C352.721 440.359 351.791 442.604 349.781 446.419C346.927 451.834 343.434 453.933 340.786 459.433C337.964 465.293 337.256 468.953 336.264 475.263C335.293 481.432 334.749 485.048 335.705 491.167C336.802 498.193 339.574 501.597 342.37 508.162C343.245 510.219 343.502 511.483 344.66 513.409C346.325 516.18 348.933 516.721 350.211 519.672C351.65 522.995 349.952 525.368 350.61 528.916C351.268 532.464 351.82 534.494 353.555 537.688C355.864 541.941 357.679 544.365 361.881 547.082C366.931 550.347 371.153 549.594 377.116 551.142C381.785 552.354 385.874 550.86 389.091 554.186C390.596 555.743 390.409 557.268 391.733 558.963C396.455 565.012 402.911 565.249 411.016 565.918C419.362 566.607 423.826 562.429 432.227 561.981C436.874 561.733 439.47 562.462 444.117 562.205C455.561 561.573 461.651 552.705 472.674 555.285C475.144 555.863 478.33 555.061 478.77 557.394C479.225 559.803 474.45 561.689 474.915 564.997C478.696 571.183 491.434 568.108 495.872 566.78C501.7 565.036 504.788 563.43 510.065 560.499C515.748 557.344 518.157 554.486 523.678 551.085C527.763 548.569 530.019 547.058 534.405 545.043C538.587 543.121 541.403 543.048 545.495 540.959C551.43 537.928 554.234 535.283 558.962 530.762C565.092 524.9 565.721 519.432 572.042 513.749C574.837 511.236 576.199 509.359 579.727 507.866C582.817 506.557 585.087 507.527 588.211 506.291C592.686 504.52 594.52 502.2 597.799 498.839C602.752 493.764 605.732 490.346 607.279 483.71C608.26 479.5 605.994 476.848 607.437 472.742C608.849 468.724 612.208 467.653 614.116 463.804C615.992 460.023 616.406 457.63 617.038 453.538C618.122 446.52 612.747 442.035 615.888 435.52C617.164 432.874 619.237 432.071 620.458 429.405C622.751 424.398 622.16 420.741 620.532 415.616C619.175 411.342 617.307 409.287 614.327 405.828C610.641 401.551 605.862 401.373 602.959 396.594C601.712 394.541 602.489 392.519 600.596 390.955C591.785 383.677 588.216 378.088 578.792 375.15C576.188 374.338 574.451 375.175 571.714 374.843C567.853 374.375 565.901 373.237 562.078 372.58C551.344 370.734 537.74 373.855 533.983 372.527C536.772 366.969 558.515 363.074 564.855 361.53C569.929 360.295 572.807 358.906 578.006 359.09C582.657 359.254 585.033 360.655 589.484 361.821C595.158 363.308 597.932 365.992 603.87 366.039C608.07 366.072 610.275 364.282 614.476 364.07C617.777 363.904 619.754 363.685 622.9 364.533C628.354 366.001 631.204 368.492 634.123 372.984C635.183 374.615 635.278 375.777 636.268 377.447C638.78 381.684 640.855 383.866 645.018 386.762C650.095 390.294 655.712 388.237 660.12 392.468C663.033 395.264 664.636 397.351 665.258 401.238C665.664 403.771 664.72 405.247 664.724 407.819C664.733 413.433 664.015 417.318 667.341 421.919C669.319 424.654 670.498 427.803 674.092 427.553C676.006 427.421 676.624 425.555 678.54 425.512C681.276 425.451 682.51 427.309 684.079 429.346C686.689 432.735 685.67 435.867 685.193 440.079C684.673 444.672 682.243 446.844 681.144 451.364C679.943 456.305 680.651 459.251 679.579 464.214L679.514 464.518C678.367 469.835 677.683 473.007 675.118 478.007C671.811 484.454 667.413 486.656 663.372 492.747C658.837 499.581 657.185 503.87 653.625 511.167C649.971 518.657 649.84 523.726 644.945 530.604C641.472 535.485 639.517 538.591 634.315 541.896C630.153 544.54 623.873 550.916 622.448 546.529C621.778 544.466 624.083 543.162 623.624 541.044C623.196 539.067 622.544 537.667 620.631 536.738C617.979 535.449 615.868 537.399 613.068 538.546C606.602 541.196 605.446 546.005 600.389 550.623C591.384 558.846 587.056 564.45 576.497 570.858C569.959 574.826 565.409 575.587 558.776 579.414C551.212 583.779 546.098 585.673 540.51 592.123C537.023 596.147 537.448 600.004 533.418 603.568C529.196 607.301 524.954 606.742 520.073 609.691C515.347 612.547 513.049 614.653 508.933 618.241C503.614 622.877 502.456 627.336 496.4 631.101C489.976 635.094 482.134 642.669 477.746 636.994C476.379 635.226 477.333 633.375 475.879 631.668C473.534 628.914 470.432 628.813 466.595 628.935C461.907 629.083 460.143 632.441 455.65 633.802C451.623 635.023 449.13 634.751 445.044 635.771C438.408 637.426 435.012 639.361 428.584 641.662C422.156 643.962 418.833 646.208 412.124 647.553C404.763 649.028 400.033 645.832 392.949 648.275C385.981 650.678 384.453 655.957 377.858 659.179L377.59 659.31C373.323 661.396 370.718 662.669 365.919 663.421C358.707 664.551 354.54 659.222 347.508 661.166C344.476 662.004 343.211 663.532 340.236 664.541C336.253 665.892 333.831 666.479 329.63 666.51C322.937 666.557 320.013 662.613 313.401 661.824C306.192 660.963 301.751 664.497 294.723 662.859C287.961 661.284 286.329 655.804 279.537 654.334C275.514 653.463 272.769 655.229 268.919 653.873C265.054 652.512 264.084 649.935 260.75 647.692C253.894 643.077 250.231 639.158 241.807 637.837C236.629 637.026 233.422 639.336 228.292 638.32C223.391 637.349 220.698 636.027 216.802 633.16C211.039 628.918 211.599 623.454 206.61 618.44C200.886 612.687 193.853 613.167 189.073 606.705C184.998 601.196 186.206 596.512 183.402 590.336C179.704 582.192 174.967 573.264 171.416 570.682C166.98 575.152 167.598 579.274 166.179 585.024C164.228 592.927 164.25 597.575 164.298 605.63C164.363 616.399 165.745 622.395 168.041 632.891C170.686 644.975 172.071 651.983 177.602 663.124C181.079 670.127 183.095 674.161 188.23 680.193C194.025 687 200.623 687.991 205.925 695.141C210.189 700.89 209.057 706.089 213.79 711.508C218.149 716.499 222.471 717.483 227.922 721.445C231.53 724.068 233.392 725.73 237.084 728.252C242.277 731.8 244.674 735.012 250.925 736.622C256.19 737.979 259.606 736.007 265.009 736.845C268.698 737.416 270.712 738.031 274.221 739.186C282.238 741.827 285.2 746.274 293.164 749.041C305.637 753.374 314.203 750.072 327.223 752.848C332.317 753.934 334.891 755.709 340.119 756.127C345.818 756.582 349.371 756.593 354.761 754.625C358.661 753.201 360.14 751.09 363.864 749.289C370.111 746.267 374.008 745.238 380.821 743.711C386.912 742.345 390.6 743.068 396.662 741.581C401.128 740.485 403.571 739.594 407.826 737.889C414.727 735.123 417.602 731.567 424.626 729.098C428.604 727.7 431.038 727.547 435.086 726.347C441.799 724.356 445.55 723.115 451.97 720.377C460.78 716.62 465.459 713.766 473.448 708.894L473.922 708.605C481.814 703.792 485.672 700.328 493.388 695.269C500.056 690.897 503.426 687.82 510.673 684.363C514.084 682.735 516.005 679.774 519.643 680.672C522.549 681.39 524.516 682.993 524.975 685.76C525.612 689.596 520.694 690.508 517.581 693.209C513.404 696.834 510.51 698.256 505.945 701.446C501.257 704.722 498.775 706.76 493.884 709.762C489.212 712.63 485.365 712.712 481.533 716.511C479.555 718.471 477.654 719.256 477.314 722.156C478.281 724.102 480.607 723.675 482.914 723.952C487.409 724.493 489.935 722.574 494.223 721.043C498.834 719.397 501.064 717.704 505.519 715.705C512.811 712.434 517.175 710.752 524.329 707.993L525.507 707.539C533.47 704.467 538.603 704.131 546.064 700.078C554.151 695.683 558.006 692.048 564.464 685.723C569.45 680.84 570.711 676.834 576.004 672.237C579.623 669.095 582.2 667.947 586.089 665.099C589.74 662.425 592.061 661.196 595.325 658.118C600.822 652.934 601.289 648.103 606.502 642.673C610.625 638.378 613.616 636.588 618.272 632.791C625.324 627.04 630.267 624.808 636.672 618.437C641.858 613.277 644.227 609.923 648.491 604.089C655.15 594.977 656.507 588.547 663.231 579.475C667.127 574.218 670.324 571.929 673.995 566.538C675.999 563.597 676.578 561.649 678.699 558.778C681.857 554.501 684.19 552.442 688.275 548.897C692.433 545.29 699.464 546.701 696.165 555.941C693.097 564.533 684.721 574.676 678.188 584.397C674.527 589.843 679.735 591.639 687.751 586.268C695.734 580.919 698.263 575.845 704.721 568.938C710.986 562.237 713.628 557.767 720.346 551.453C728.94 543.376 734.905 534.438 731.39 523.474C729.306 516.973 730.772 513.054 734.142 507.567C739.289 499.188 742.701 492.204 742.072 479.356C741.637 470.487 736.607 463.143 737.928 457.031C738.923 452.429 742.446 451.058 746.195 454.281C749.632 457.237 747.968 460.966 749.927 464.933C751.549 468.216 751.125 472.058 754.92 472.919C759.964 474.065 760.679 467.116 762.654 462.571C766.666 453.338 763.364 441.776 760.195 437.503C754.684 430.07 748.498 426.861 746.356 414.952C743.35 398.241 740.327 387.422 727.621 375.483C716.458 364.995 712.849 373.2 704.519 369.237C697.78 366.031 698.313 361.143 693.066 357.182C685.816 351.708 679.555 351.839 671.505 347.409C665.449 344.076 663.223 340.291 656.597 338.021C647.923 335.048 641.97 338.261 632.744 337.181C625.001 336.274 621.011 333.798 613.194 333.517C606.452 333.275 602.691 334.871 595.934 335.099C586.925 335.404 581.839 332.624 572.929 334.102C563.211 335.714 558.868 340.172 549.693 343.682C533.825 349.753 523.81 350.444 508.361 357.43C490.004 365.73 474.337 375.089 464.616 384.186C473.174 368.822 485.959 361.766 501.599 349.367C508.902 343.576 512.665 339.777 520.92 335.247C530.602 329.933 537.413 329.767 547.622 325.429C557.446 321.255 561.891 316.503 572.192 313.576C581.608 310.901 587.58 312.926 597.088 310.576C605.908 308.397 609.895 304.066 618.845 302.487C625.392 301.332 629.216 302.452 635.826 301.766C644.536 300.863 649.16 297.422 657.885 297.672C667.115 297.936 671.284 303.049 680.49 303.605C688.384 304.083 692.828 300.968 700.719 301.471C707.905 301.93 711.84 303.209 718.572 305.451C729.571 309.113 731.298 317.269 744.4 319.294C756.542 321.17 762.82 325.148 772.628 331.882C781.684 338.099 784.218 344.183 792.468 351.293C799.882 357.683 807.045 358.664 812.429 366.63C816.356 372.442 815.955 376.881 818.597 383.312C823.184 394.48 830.454 399.267 832.109 411.191C833.162 418.78 829.875 423.268 830.932 430.857C832.252 440.335 833.609 442.919 832.117 456.161C829.245 447.781 829.97 441.85 826.556 433.289C823.722 426.183 819.981 423.109 817.2 415.984C815.66 412.036 816.026 409.371 813.965 405.645C811.323 400.868 809.105 396.013 803.07 391.866C800.396 390.029 797.137 391.716 797.421 394.535C797.942 399.706 798.306 402.048 799.675 406.677C801.719 413.593 806.337 416.342 807.612 423.435C808.86 430.379 807.102 434.492 806.144 441.534C804.694 452.203 800.113 457.856 800.191 468.569C800.27 479.448 800.93 485.563 798.273 496.07C796.492 503.114 799.873 507.632 797.302 514.482C795.367 519.64 792.334 521.701 789.435 526.476C785.978 532.171 781.837 534.921 781.228 541.369C780.634 547.658 779.396 551.576 778.196 558.138C777.57 561.568 777.43 565.842 781.068 566.518C786.539 567.534 790.084 560.825 794.959 556.242C800.891 550.666 803.555 546.867 807.76 540.091C814.227 529.669 810.954 520.64 819.083 511.25C822.162 507.693 823.707 505.11 828.101 503.093C831.758 501.416 834.578 504.725 837.58 502.145C847.798 493.36 845.547 483.547 850.951 472.518C855.578 463.074 860.024 458.482 863.643 448.689C866.851 440.011 867.025 434.758 869.051 425.807C871.471 415.117 876.245 409.138 874.932 398.381C873.996 390.712 870.596 387.101 867.976 379.82C863.931 368.578 864.216 361.257 858.209 350.841C850.189 336.934 831.745 336.976 829.05 321.41C828.197 316.482 829.644 312.94 837.438 314.586C854.794 318.253 872.658 338.841 882.27 336.247C884.937 331.7 877.742 322.028 875.605 319.252C866.678 307.65 856.814 305.321 843.584 298.05C832.075 291.724 825.282 288.611 812.872 283.897C802.388 279.915 787.768 285.547 785.371 275.226C784.764 272.61 786.116 270.924 785.408 268.332C783.433 261.1 775.453 260.906 767.81 258.633C757.135 255.459 750.074 259.822 738.866 258.738C729.305 257.813 724.399 254.74 714.783 254.295C705.678 253.873 700.552 255.41 691.438 256.196C681.324 257.069 675.536 256.702 665.549 258.571C659.908 259.626 656.92 261.02 651.27 262.031C641.58 263.764 635.771 261.748 626.157 263.856C613.981 266.525 608.716 272.424 596.848 276.183C586.249 279.54 579.659 279.177 569.067 282.554C558.877 285.804 552.923 287.544 543.783 292.919C536.77 297.043 533.858 300.684 527.213 305.313C516.71 312.63 510.297 316.045 499.274 322.653C489.765 328.353 483.441 330.224 474.716 336.934C463.977 345.195 460.724 352.424 451.273 361.948C445.151 368.117 440.543 370.662 435.285 377.475C428.815 385.857 429.473 392.834 423.017 401.225C420.063 405.063 417.482 406.568 414.641 410.477C409.834 417.092 406.507 421.268 405.815 429.132C405.295 435.052 408.276 438.103 408.578 444.015C408.975 451.793 403.647 456.533 406.128 463.917C408.325 470.458 415.679 470.995 417.871 477.538C418.663 479.901 418.096 481.491 419.034 483.805C421.61 490.157 426.802 492.275 433.736 494.446C439.439 496.232 443.245 494.453 449.238 495.215C457.322 496.244 457.831 501.318 468.303 500.995C477.05 500.725 482.72 496.68 491.345 495.098C499.472 493.608 504.651 495.13 512.277 492.024C518.815 489.36 520.625 484.805 527.089 481.982C532.336 479.69 536.339 480.944 541.295 478.13C545.684 475.637 546.035 472.692 550.665 469.503C552.875 467.981 555.889 466.913 557.719 464.953C559.795 462.729 560.185 460.184 563.271 457.035C566.136 454.111 568.303 452.645 571.017 449.115Z" fill="#799B9C"/>
<path d="M457.627 215.657C454.952 217.153 453.621 218.778 452.685 221.582C452.267 222.833 451.94 223.614 452.167 224.897C453.173 230.571 460.646 230.486 464.939 228.607C471.978 225.524 476.112 219.458 467.739 215.211C464.282 213.458 461.06 213.737 457.627 215.657Z" fill="#799B9C"/>
<path d="M487.303 201.317C484.837 201.644 482.859 202.824 482.297 205.082C481.876 206.771 482.275 208.067 483.52 209.312C485.196 210.987 487.505 211.095 489.823 210.168C492.361 209.152 494.186 207.069 493.617 204.602C493.022 202.02 490.146 200.939 487.303 201.317Z" fill="#799B9C"/>
<path d="M166.715 550.081C166.682 556.171 166.266 559.483 169.55 565.355C171.632 569.08 175.064 556.709 175.284 551.326C175.573 544.244 177.19 539.977 175.346 535.109C173.625 530.567 166.752 543.186 166.715 550.081Z" fill="#799B9C"/>
<path d="M641.118 212.056C637.823 214.761 634.558 217.814 636.281 221.461C637.657 224.375 640.648 224.618 644.013 225.293C649.578 226.41 668.365 222.072 666.183 214.696C664.054 207.5 645.991 208.054 641.118 212.056Z" fill="#799B9C"/>
<path d="M679.557 210.399C677.758 211.649 675.965 212.458 675.887 214.535C675.755 218.056 681.345 220.211 684.4 220.555C687.917 220.951 690.99 220.88 693.212 218.228C694.599 216.573 695.258 215.124 694.847 213.089C693.557 206.7 683.844 207.421 679.557 210.399Z" fill="#799B9C"/>
<path d="M500.823 793.738C507.629 790.982 522.827 787.082 526.597 781.24C535.083 768.094 507.184 767.711 497.111 773.739C485.09 780.933 480.713 801.883 500.823 793.738Z" fill="#799B9C"/>
<path d="M463.063 786.518C458.212 786.714 452.599 787.018 451.693 791.464C449.81 800.708 464.222 801.834 471.813 795.833C478.822 790.292 467.502 786.338 463.063 786.518Z" fill="#799B9C"/>
<ellipse cx="435.201" cy="793.174" rx="6.47206" ry="4.38183" transform="rotate(-10.5143 435.201 793.174)" fill="#799B9C"/>
</g>
<g filter="url(#filter8_f_617_1067)">
<path d="M496 384C471.699 384 452 403.699 452 428C452 441.532 458.108 453.637 467.718 461.708C467.718 461.708 475.57 463.933 480.5 463C487.328 461.708 482.966 447.069 489 444C496.376 440.248 508.228 440.255 515 435.5C519.86 432.087 518.525 434.243 523.5 431C527.237 428.564 532.967 434.271 536 431C540.442 426.21 537.85 414.375 537.85 414.375C532.113 396.743 515.545 384 496 384Z" fill="white"/>
</g>
<path d="M453 426.904C453 440.594 469.309 450.101 479 458.267C479 458.267 481.483 460.548 486 458.267C489.5 456.5 487.915 455.105 494 452C501.438 448.204 505.67 449.811 512.5 445C517.402 441.547 517.983 437.781 523 434.5C526.769 432.035 525.075 435.272 528.134 431.963C532.614 427.117 529.647 414.258 529.647 414.258C523.861 396.421 511.539 382.39 491.828 382.39C486.062 382.39 480.861 383.493 476.277 385.5L466 379.5L462.5 396.333C456.321 404.307 453 415.066 453 426.904Z" fill="white"/>
<path d="M467.073 390.774C467.291 392.189 467.549 393.804 467.816 395.361C457.477 404.573 453.076 419.414 457.826 433.344C462.375 446.683 474.079 455.556 487.193 457.14C486.161 458.422 485.181 459.838 484.932 460.854C471.071 458.532 458.894 448.869 454.04 434.634C448.47 418.3 454.21 400.842 467.073 390.774ZM486.297 382.713C504.581 380.299 522.631 391.012 528.812 409.136C531.515 417.064 531.552 425.256 529.406 432.74C527.621 433.099 525.952 433.579 524.749 434.119C527.46 426.75 527.758 418.438 525.026 410.427C519.865 395.293 505.495 385.91 490.304 386.395C488.953 385.08 487.614 383.851 486.297 382.713Z" fill="#061111"/>
<path d="M463.665 376.995C471.403 371.941 490.77 387.884 506.922 412.606L507.672 413.764C511.308 419.426 514.446 425.045 517.029 430.393C515.702 429.908 514.17 430.032 512.895 430.862C512.241 431.288 511.731 431.851 511.376 432.488C508.791 427.194 505.617 421.577 501.899 415.887C494.061 403.89 485.565 394.227 478.324 388.266C474.675 385.261 471.613 383.422 469.331 382.576C467.988 382.078 467.277 382.045 466.979 382.067C466.84 382.331 466.583 382.996 466.5 384.425C466.405 386.051 466.579 388.174 467.088 390.763C465.253 392.198 463.562 393.783 462.029 395.494C459.591 386.282 459.942 379.428 463.665 376.995Z" fill="#061111"/>
<path d="M487.742 424.127C487.742 424.127 502.16 427.096 513.98 432.899C514.622 433.214 515.387 432.79 515.447 432.078C516.446 420.274 517.926 407.457 517.926 407.457" stroke="#061111" stroke-width="5"/>
<circle cx="464.375" cy="424.514" r="3.5" transform="rotate(-12.0516 464.375 424.514)" fill="#061111"/>
<circle cx="465.397" cy="412.537" r="3" transform="rotate(-12.0516 465.397 412.537)" fill="#061111"/>
<circle cx="468.616" cy="403.669" r="2" transform="rotate(-12.0516 468.616 403.669)" fill="#061111"/>
<path d="M483.5 463.5C487 457.5 487.792 452.457 498 450.5C506.305 449.057 511.498 446.869 515.5 441.5C521.781 434.361 525.5 431.5 534 432.5" stroke="#3A6566" stroke-width="3" stroke-linecap="round"/>
<path d="M230.2 289.876C231.299 293.217 232.638 296.249 234.506 298.879C236.748 302.034 239.574 304.37 243.159 306.08C240.647 307.308 238.423 308.806 236.523 310.703C234.193 313.03 232.491 315.807 231.272 319.095C229.912 316.765 228.368 314.717 226.542 312.95C224.245 310.728 221.618 309.058 218.592 307.789C221.607 305.658 224.043 303.023 226.046 299.658C227.708 296.865 229.035 293.622 230.2 289.876Z" fill="white" stroke="white" stroke-width="8"/>
<path d="M547.126 840.318C548.089 845.256 549.555 849.436 552.285 852.909C554.797 856.105 558.1 858.346 562.19 860.177C558.556 861.322 555.288 862.876 552.393 865.015C548.318 868.026 545.224 872.002 542.816 877.069C541.267 872.837 539.33 869.139 536.776 865.919C534.096 862.54 530.856 859.829 526.96 857.568C530.989 856.353 534.539 854.698 537.699 852.087C541.282 849.126 544.201 845.089 546.987 839.578C547.033 839.828 547.078 840.074 547.126 840.318Z" fill="white" stroke="white" stroke-width="9"/>
<path d="M754.35 150.673C754.997 153.338 755.914 155.769 757.337 157.939C758.834 160.221 760.765 162.023 763.158 163.521C761.245 164.248 759.479 165.174 757.87 166.363C755.558 168.071 753.712 170.208 752.214 172.798C751.302 170.726 750.209 168.845 748.862 167.147C747.271 165.141 745.403 163.482 743.233 162.074C745.597 160.956 747.702 159.496 749.606 157.502C751.382 155.643 752.913 153.385 754.35 150.673Z" fill="white" stroke="white" stroke-width="8"/>
<defs>
<filter id="filter0_d_617_1067" x="285.171" y="108.155" width="95.0049" height="147.471" filterUnits="userSpaceOnUse" color-interpolation-filters="sRGB">
<feFlood flood-opacity="0" result="BackgroundImageFix"/>
<feColorMatrix in="SourceAlpha" type="matrix" values="0 0 0 0 0 0 0 0 0 0 0 0 0 0 0 0 0 0 127 0" result="hardAlpha"/>
<feOffset dx="-3" dy="-4"/>
<feComposite in2="hardAlpha" operator="out"/>
<feColorMatrix type="matrix" values="0 0 0 0 0.47451 0 0 0 0 0.607843 0 0 0 0 0.611765 0 0 0 1 0"/>
<feBlend mode="normal" in2="BackgroundImageFix" result="effect1_dropShadow_617_1067"/>
<feBlend mode="normal" in="SourceGraphic" in2="effect1_dropShadow_617_1067" result="shape"/>
</filter>
<filter id="filter1_d_617_1067" x="705.333" y="668.265" width="129.459" height="252.323" filterUnits="userSpaceOnUse" color-interpolation-filters="sRGB">
<feFlood flood-opacity="0" result="BackgroundImageFix"/>
<feColorMatrix in="SourceAlpha" type="matrix" values="0 0 0 0 0 0 0 0 0 0 0 0 0 0 0 0 0 0 127 0" result="hardAlpha"/>
<feOffset dx="2" dy="8"/>
<feComposite in2="hardAlpha" operator="out"/>
<feColorMatrix type="matrix" values="0 0 0 0 0.47451 0 0 0 0 0.607843 0 0 0 0 0.611765 0 0 0 1 0"/>
<feBlend mode="normal" in2="BackgroundImageFix" result="effect1_dropShadow_617_1067"/>
<feBlend mode="normal" in="SourceGraphic" in2="effect1_dropShadow_617_1067" result="shape"/>
</filter>
<filter id="filter2_d_617_1067" x="854.405" y="145" width="89.0157" height="119.736" filterUnits="userSpaceOnUse" color-interpolation-filters="sRGB">
<feFlood flood-opacity="0" result="BackgroundImageFix"/>
<feColorMatrix in="SourceAlpha" type="matrix" values="0 0 0 0 0 0 0 0 0 0 0 0 0 0 0 0 0 0 127 0" result="hardAlpha"/>
<feOffset dx="5" dy="-1"/>
<feComposite in2="hardAlpha" operator="out"/>
<feColorMatrix type="matrix" values="0 0 0 0 0.47451 0 0 0 0 0.607843 0 0 0 0 0.611765 0 0 0 1 0"/>
<feBlend mode="normal" in2="BackgroundImageFix" result="effect1_dropShadow_617_1067"/>
<feBlend mode="normal" in="SourceGraphic" in2="effect1_dropShadow_617_1067" result="shape"/>
</filter>
<filter id="filter3_d_617_1067" x="96.6343" y="732.302" width="238.721" height="227.667" filterUnits="userSpaceOnUse" color-interpolation-filters="sRGB">
<feFlood flood-opacity="0" result="BackgroundImageFix"/>
<feColorMatrix in="SourceAlpha" type="matrix" values="0 0 0 0 0 0 0 0 0 0 0 0 0 0 0 0 0 0 127 0" result="hardAlpha"/>
<feOffset dx="-4" dy="6"/>
<feComposite in2="hardAlpha" operator="out"/>
<feColorMatrix type="matrix" values="0 0 0 0 0.47451 0 0 0 0 0.607843 0 0 0 0 0.611765 0 0 0 1 0"/>
<feBlend mode="normal" in2="BackgroundImageFix" result="effect1_dropShadow_617_1067"/>
<feBlend mode="normal" in="SourceGraphic" in2="effect1_dropShadow_617_1067" result="shape"/>
</filter>
<filter id="filter4_d_617_1067" x="872.16" y="420.44" width="123.448" height="181.378" filterUnits="userSpaceOnUse" color-interpolation-filters="sRGB">
<feFlood flood-opacity="0" result="BackgroundImageFix"/>
<feColorMatrix in="SourceAlpha" type="matrix" values="0 0 0 0 0 0 0 0 0 0 0 0 0 0 0 0 0 0 127 0" result="hardAlpha"/>
<feOffset dx="4" dy="3"/>
<feComposite in2="hardAlpha" operator="out"/>
<feColorMatrix type="matrix" values="0 0 0 0 0.47451 0 0 0 0 0.607843 0 0 0 0 0.611765 0 0 0 1 0"/>
<feBlend mode="normal" in2="BackgroundImageFix" result="effect1_dropShadow_617_1067"/>
<feBlend mode="normal" in="SourceGraphic" in2="effect1_dropShadow_617_1067" result="shape"/>
</filter>
<filter id="filter5_d_617_1067" x="556.645" y="48.1097" width="80.4801" height="105.816" filterUnits="userSpaceOnUse" color-interpolation-filters="sRGB">
<feFlood flood-opacity="0" result="BackgroundImageFix"/>
<feColorMatrix in="SourceAlpha" type="matrix" values="0 0 0 0 0 0 0 0 0 0 0 0 0 0 0 0 0 0 127 0" result="hardAlpha"/>
<feOffset dy="-5"/>
<feComposite in2="hardAlpha" operator="out"/>
<feColorMatrix type="matrix" values="0 0 0 0 0.47451 0 0 0 0 0.607843 0 0 0 0 0.611765 0 0 0 1 0"/>
<feBlend mode="normal" in2="BackgroundImageFix" result="effect1_dropShadow_617_1067"/>
<feBlend mode="normal" in="SourceGraphic" in2="effect1_dropShadow_617_1067" result="shape"/>
</filter>
<filter id="filter6_d_617_1067" x="30.4572" y="336.23" width="127.259" height="257.324" filterUnits="userSpaceOnUse" color-interpolation-filters="sRGB">
<feFlood flood-opacity="0" result="BackgroundImageFix"/>
<feColorMatrix in="SourceAlpha" type="matrix" values="0 0 0 0 0 0 0 0 0 0 0 0 0 0 0 0 0 0 127 0" result="hardAlpha"/>
<feOffset dx="-5" dy="2"/>
<feComposite in2="hardAlpha" operator="out"/>
<feColorMatrix type="matrix" values="0 0 0 0 0.47451 0 0 0 0 0.607843 0 0 0 0 0.611765 0 0 0 1 0"/>
<feBlend mode="normal" in2="BackgroundImageFix" result="effect1_dropShadow_617_1067"/>
<feBlend mode="normal" in="SourceGraphic" in2="effect1_dropShadow_617_1067" result="shape"/>
</filter>
<filter id="filter7_d_617_1067" x="164.285" y="201.243" width="724.57" height="604.308" filterUnits="userSpaceOnUse" color-interpolation-filters="sRGB">
<feFlood flood-opacity="0" result="BackgroundImageFix"/>
<feColorMatrix in="SourceAlpha" type="matrix" values="0 0 0 0 0 0 0 0 0 0 0 0 0 0 0 0 0 0 127 0" result="hardAlpha"/>
<feOffset dx="6" dy="6"/>
<feComposite in2="hardAlpha" operator="out"/>
<feColorMatrix type="matrix" values="0 0 0 0 0.228077 0 0 0 0 0.395088 0 0 0 0 0.4 0 0 0 1 0"/>
<feBlend mode="normal" in2="BackgroundImageFix" result="effect1_dropShadow_617_1067"/>
<feBlend mode="normal" in="SourceGraphic" in2="effect1_dropShadow_617_1067" result="shape"/>
</filter>
<filter id="filter8_f_617_1067" x="428" y="360" width="134.602" height="127.228" filterUnits="userSpaceOnUse" color-interpolation-filters="sRGB">
<feFlood flood-opacity="0" result="BackgroundImageFix"/>
<feBlend mode="normal" in="SourceGraphic" in2="BackgroundImageFix" result="shape"/>
<feGaussianBlur stdDeviation="12" result="effect1_foregroundBlur_617_1067"/>
</filter>
</defs>
</svg>
