<svg width="591" height="151" viewBox="0 0 591 151" fill="none" xmlns="http://www.w3.org/2000/svg">
<path fill-rule="evenodd" clip-rule="evenodd" d="M155.772 111.071C152.182 112.692 148.286 113.799 144.166 114.289C122.504 116.864 102.855 101.39 100.28 79.7273C98.2429 62.5899 107.501 46.7131 122.184 39.5527C122.121 40.6307 122.058 41.824 122.004 43.0227C109.309 49.9614 101.447 64.1275 103.259 79.3732C105.638 99.3907 123.795 113.689 143.812 111.31C148.05 110.806 152.031 109.595 155.652 107.81C155.654 107.844 155.656 107.878 155.659 107.912C155.733 109.057 155.769 110.11 155.772 111.071ZM169.052 101.279C176.272 93.1346 180.113 82.0602 178.728 70.4024C176.467 51.3876 161.052 37.1413 142.667 35.6841C143.459 36.73 144.251 37.8291 145.042 38.9781C160.858 41.3961 173.768 54.0953 175.749 70.7565C176.92 80.6119 174.049 90.0162 168.443 97.3086C168.676 98.6556 168.879 99.9803 169.052 101.279Z" fill="#F8F8F8"/>
<path fill-rule="evenodd" clip-rule="evenodd" d="M156.828 89.6943C155.402 83.9501 153.459 77.7621 150.997 71.3851C145.837 58.016 139.547 46.7929 133.71 39.4508C130.768 35.7505 128.159 33.3123 126.103 32.0084C124.892 31.2395 124.203 31.0572 123.908 31.0168C123.717 31.2448 123.33 31.8424 122.949 33.2261C122.517 34.7956 122.242 36.9074 122.199 39.5453C120.105 40.5655 118.121 41.763 116.264 43.1162C115.803 33.5987 117.578 26.9696 121.728 25.3677C130.35 22.0395 145.961 41.6748 156.595 69.2244C159.238 76.0722 161.325 82.7643 162.837 89.0063C161.577 88.0954 160.027 87.7914 158.623 88.3312C157.894 88.6119 157.287 89.0881 156.828 89.6943ZM158.591 98.0207C159.125 101.116 159.478 104.011 159.65 106.652C159.958 111.369 159.663 114.929 159.017 117.275C158.636 118.659 158.248 119.257 158.057 119.485C157.762 119.444 157.074 119.262 155.862 118.493C154.224 117.454 152.234 115.694 150.004 113.149C148.117 113.667 146.168 114.051 144.166 114.289C143.859 114.325 143.552 114.358 143.245 114.387C149.667 122.585 155.855 126.825 160.238 125.134C165.777 122.996 167.085 111.9 164.492 96.9331C164.017 97.6441 163.355 98.2024 162.539 98.5161C161.232 99.0187 159.799 98.7898 158.591 98.0207ZM157.935 119.608L157.936 119.607L157.937 119.606C157.939 119.605 157.941 119.603 157.945 119.601C157.939 119.606 157.935 119.608 157.935 119.608ZM158.218 119.495C158.226 119.494 158.23 119.494 158.23 119.494C158.23 119.494 158.226 119.495 158.218 119.495ZM124.03 30.894C124.03 30.8942 124.027 30.8967 124.021 30.901C124.027 30.896 124.03 30.8938 124.03 30.894ZM123.747 31.0065C123.739 31.0078 123.735 31.008 123.735 31.0078C123.735 31.0076 123.739 31.007 123.747 31.0065Z" fill="#F8F8F8"/>
<path d="M135.432 76.4869C135.432 76.4869 148.913 82.4016 159.261 90.5441C159.823 90.9861 160.659 90.7315 160.867 90.0477C164.308 78.7124 168.432 66.4869 168.432 66.4869" stroke="#F8F8F8" stroke-width="5"/>
<circle cx="112.5" cy="71.9869" r="3.5" fill="#F8F8F8"/>
<circle cx="116" cy="60.4869" r="3" fill="#F8F8F8"/>
<circle cx="121" cy="52.4869" r="2" fill="#F8F8F8"/>
<path d="M240.688 93.7588L236.944 90.0628C235.632 91.0548 234.168 91.8308 232.552 92.3908C230.952 92.9508 229.264 93.2308 227.488 93.2308C225.216 93.2308 223.08 92.7828 221.08 91.8868C219.08 90.9748 217.32 89.7268 215.8 88.1428C214.28 86.5428 213.088 84.6868 212.224 82.5748C211.36 80.4628 210.928 78.2068 210.928 75.8068C210.928 73.4068 211.36 71.1588 212.224 69.0628C213.088 66.9508 214.28 65.0948 215.8 63.4948C217.32 61.8948 219.08 60.6468 221.08 59.7508C223.08 58.8388 225.216 58.3828 227.488 58.3828C229.776 58.3828 231.92 58.8388 233.92 59.7508C235.92 60.6468 237.68 61.8948 239.2 63.4948C240.72 65.0948 241.904 66.9508 242.752 69.0628C243.616 71.1588 244.048 73.4068 244.048 75.8068C244.048 77.6788 243.776 79.4628 243.232 81.1588C242.688 82.8388 241.944 84.3908 241 85.8148L244.816 89.6308L240.688 93.7588ZM227.488 87.3748C228.416 87.3748 229.328 87.2388 230.224 86.9668C231.12 86.6788 231.944 86.2788 232.696 85.7668L229.648 82.7188L233.776 78.5668L236.632 81.4468C237.144 80.6148 237.528 79.7188 237.784 78.7588C238.056 77.7988 238.192 76.8148 238.192 75.8068C238.192 74.2068 237.912 72.7108 237.352 71.3188C236.792 69.9268 236.016 68.7028 235.024 67.6468C234.048 66.5748 232.912 65.7428 231.616 65.1508C230.336 64.5428 228.96 64.2388 227.488 64.2388C226.016 64.2388 224.632 64.5428 223.336 65.1508C222.04 65.7588 220.896 66.5988 219.904 67.6708C218.928 68.7268 218.16 69.9508 217.6 71.3428C217.056 72.7348 216.784 74.2228 216.784 75.8068C216.784 77.3908 217.064 78.8868 217.624 80.2948C218.184 81.6868 218.952 82.9188 219.928 83.9908C220.92 85.0468 222.056 85.8788 223.336 86.4868C224.632 87.0788 226.016 87.3748 227.488 87.3748ZM249.352 83.8708V68.7508H255.208V82.3348C255.208 83.2788 255.44 84.1428 255.904 84.9268C256.368 85.6948 256.984 86.3108 257.752 86.7748C258.536 87.2228 259.392 87.4468 260.32 87.4468C261.28 87.4468 262.144 87.2228 262.912 86.7748C263.68 86.3108 264.296 85.6948 264.76 84.9268C265.224 84.1428 265.456 83.2788 265.456 82.3348V68.7508H271.312L271.336 92.7508H265.48L265.456 90.5668C264.624 91.4308 263.64 92.1188 262.504 92.6308C261.368 93.1268 260.152 93.3748 258.856 93.3748C257.112 93.3748 255.52 92.9508 254.08 92.1028C252.64 91.2388 251.488 90.0948 250.624 88.6708C249.776 87.2308 249.352 85.6308 249.352 83.8708ZM295.301 68.7508H301.157V92.7508H295.301L295.037 89.7748C294.381 90.8468 293.509 91.7188 292.421 92.3908C291.349 93.0468 290.077 93.3748 288.605 93.3748C286.829 93.3748 285.165 93.0388 283.613 92.3668C282.061 91.6948 280.693 90.7668 279.509 89.5828C278.341 88.3988 277.421 87.0308 276.749 85.4788C276.093 83.9268 275.765 82.2628 275.765 80.4868C275.765 78.7748 276.077 77.1668 276.701 75.6628C277.341 74.1588 278.229 72.8388 279.365 71.7028C280.501 70.5668 281.813 69.6788 283.301 69.0388C284.789 68.3988 286.389 68.0788 288.101 68.0788C289.685 68.0788 291.101 68.4308 292.349 69.1348C293.613 69.8388 294.685 70.7348 295.565 71.8228L295.301 68.7508ZM288.461 87.7348C289.709 87.7348 290.813 87.4228 291.773 86.7988C292.733 86.1748 293.485 85.3348 294.029 84.2788C294.573 83.2068 294.845 82.0308 294.845 80.7508C294.845 79.4548 294.573 78.2788 294.029 77.2228C293.485 76.1508 292.725 75.3028 291.749 74.6788C290.789 74.0548 289.693 73.7428 288.461 73.7428C287.229 73.7428 286.101 74.0628 285.077 74.7028C284.069 75.3268 283.261 76.1668 282.653 77.2228C282.061 78.2788 281.765 79.4548 281.765 80.7508C281.765 82.0468 282.069 83.2228 282.677 84.2788C283.285 85.3348 284.093 86.1748 285.101 86.7988C286.125 87.4228 287.245 87.7348 288.461 87.7348ZM307.404 92.7508L307.38 68.7508H313.236L313.26 70.8868C314.076 70.0228 315.052 69.3428 316.188 68.8468C317.324 68.3348 318.548 68.0788 319.86 68.0788C320.74 68.0788 321.62 68.2068 322.5 68.4628L320.196 74.3668C319.588 74.1268 318.98 74.0068 318.372 74.0068C317.428 74.0068 316.564 74.2388 315.78 74.7028C315.012 75.1508 314.396 75.7668 313.932 76.5508C313.484 77.3188 313.26 78.1748 313.26 79.1188V92.7508H307.404ZM348.064 92.7508H341.32L335.848 83.3188L332.488 87.3268V92.7508H326.632V56.7508H332.488V78.2308L340.432 68.7508H348.088L339.856 78.5668L348.064 92.7508ZM381.8 92.7508H373.568V87.7108C372.746 89.2041 371.626 90.5108 370.208 91.6308C368.789 92.7508 366.941 93.3108 364.664 93.3108C361.453 93.3108 358.858 92.2281 356.88 90.0628C354.938 87.8601 353.968 84.8174 353.968 80.9348C353.968 77.6121 354.826 74.5134 356.544 71.6388C358.261 68.7641 361.154 67.3268 365.224 67.3268C369.106 67.3268 371.888 68.8388 373.568 71.8628V57.4148H367.52V54.2228H377.488V89.5588H381.8V92.7508ZM373.568 81.7188V77.7428C373.493 75.6521 372.728 73.9534 371.272 72.6468C369.816 71.3401 368.098 70.6868 366.12 70.6868C363.357 70.6868 361.322 71.6948 360.016 73.7108C358.746 75.7268 358.112 78.0414 358.112 80.6548C358.112 83.7161 358.821 86.0308 360.24 87.5988C361.696 89.1668 363.506 89.9508 365.672 89.9508C367.912 89.9508 369.76 89.0548 371.216 87.2628C372.709 85.4334 373.493 83.5854 373.568 81.7188ZM410.91 80.2628C410.91 84.0334 409.79 87.1508 407.55 89.6148C405.31 92.0788 402.267 93.3108 398.422 93.3108C394.651 93.3108 391.683 92.1161 389.518 89.7268C387.39 87.3374 386.326 84.2574 386.326 80.4868C386.326 76.8654 387.371 73.7668 389.462 71.1908C391.553 68.5774 394.614 67.2708 398.646 67.2708C402.715 67.2708 405.777 68.5588 407.83 71.1348C409.883 73.6734 410.91 76.7161 410.91 80.2628ZM406.766 80.2068C406.766 77.3694 406.038 75.0734 404.582 73.3188C403.163 71.5268 401.147 70.6308 398.534 70.6308C395.921 70.6308 393.905 71.5454 392.486 73.3748C391.105 75.2041 390.414 77.5001 390.414 80.2628C390.414 82.9881 391.105 85.2841 392.486 87.1508C393.867 89.0174 395.883 89.9508 398.534 89.9508C401.185 89.9508 403.219 89.0361 404.638 87.2068C406.057 85.3401 406.766 83.0068 406.766 80.2068ZM456.434 71.0228H453.578L446.242 92.7508H443.218L435.602 73.7108H435.322L427.874 92.7508H424.962L417.346 71.0228H414.602V67.8308H426.362V71.0228H421.602L426.81 86.7588H427.09L434.482 67.8308H437.114L444.898 86.7588H445.178L449.77 71.0228H445.234V67.8308H456.434V71.0228ZM490.237 92.7508H477.637V89.5588H481.949V77.9668C481.949 75.2788 481.408 73.3934 480.325 72.3108C479.242 71.1908 477.861 70.6308 476.181 70.6308C473.941 70.6308 472.13 71.3774 470.749 72.8708C469.405 74.3268 468.696 76.0068 468.621 77.9108V89.5588H472.989V92.7508H460.333V89.5588H464.701V71.0228H460.221V67.8308H468.621V72.2548C470.413 68.9694 473.325 67.3268 477.357 67.3268C479.784 67.3268 481.818 68.0734 483.461 69.5668C485.104 71.0601 485.925 73.4681 485.925 76.7908V89.5588H490.237V92.7508Z" fill="#F8F8F8"/>
</svg>
