<svg width="591" height="151" viewBox="0 0 591 151" fill="none" xmlns="http://www.w3.org/2000/svg">
<path fill-rule="evenodd" clip-rule="evenodd" d="M155.772 111.572C152.182 113.193 148.286 114.301 144.166 114.79C122.504 117.365 102.855 101.892 100.28 80.2288C98.2429 63.0915 107.501 47.2147 122.184 40.0543C122.121 41.1322 122.058 42.3255 122.004 43.5243C109.309 50.463 101.447 64.629 103.259 79.8747C105.638 99.8922 123.795 114.191 143.812 111.811C148.05 111.308 152.031 110.097 155.652 108.311C155.654 108.345 155.656 108.38 155.659 108.414C155.733 109.559 155.769 110.611 155.772 111.572ZM169.052 101.78C176.272 93.6361 180.113 82.5617 178.728 70.904C176.467 51.8891 161.052 37.6428 142.667 36.1856C143.459 37.2316 144.251 38.3307 145.042 39.4796C160.858 41.8976 173.768 54.5968 175.749 71.2581C176.92 81.1135 174.049 90.5177 168.443 97.8101C168.676 99.1571 168.879 100.482 169.052 101.78Z" fill="#212D2D"/>
<path fill-rule="evenodd" clip-rule="evenodd" d="M156.828 90.1959C155.402 84.4517 153.459 78.2636 150.997 71.8866C145.837 58.5175 139.547 47.2944 133.71 39.9523C130.768 36.252 128.159 33.8139 126.103 32.5099C124.892 31.7411 124.203 31.5588 123.908 31.5183C123.717 31.7463 123.33 32.344 122.949 33.7277C122.517 35.2971 122.242 37.409 122.199 40.0469C120.105 41.0671 118.121 42.2646 116.264 43.6177C115.803 34.1002 117.578 27.4711 121.728 25.8693C130.35 22.541 145.961 42.1763 156.595 69.726C159.238 76.5737 161.325 83.2658 162.837 89.5078C161.577 88.597 160.027 88.293 158.623 88.8328C157.894 89.1134 157.287 89.5896 156.828 90.1959ZM158.591 98.5222C159.125 101.617 159.478 104.512 159.65 107.154C159.958 111.871 159.663 115.43 159.017 117.777C158.636 119.161 158.248 119.758 158.057 119.986C157.762 119.946 157.074 119.764 155.862 118.995C154.224 117.955 152.234 116.196 150.004 113.651C148.117 114.169 146.168 114.552 144.166 114.79C143.859 114.827 143.552 114.86 143.245 114.889C149.667 123.086 155.855 127.327 160.238 125.635C165.777 123.497 167.085 112.401 164.492 97.4347C164.017 98.1456 163.355 98.7039 162.539 99.0176C161.232 99.5202 159.799 99.2913 158.591 98.5222ZM157.935 120.109L157.936 120.108L157.937 120.107C157.939 120.106 157.941 120.104 157.945 120.102C157.939 120.107 157.935 120.109 157.935 120.109ZM158.218 119.997C158.226 119.995 158.23 119.995 158.23 119.995C158.23 119.995 158.226 119.996 158.218 119.997ZM124.03 31.3955C124.03 31.3957 124.027 31.3982 124.021 31.4026C124.027 31.3975 124.03 31.3953 124.03 31.3955ZM123.747 31.5081C123.739 31.5093 123.735 31.5095 123.735 31.5093C123.735 31.5092 123.739 31.5086 123.747 31.5081Z" fill="#212D2D"/>
<path d="M135.432 76.9885C135.432 76.9885 148.913 82.9032 159.261 91.0456C159.823 91.4876 160.659 91.233 160.867 90.5492C164.308 79.214 168.432 66.9885 168.432 66.9885" stroke="#212D2D" stroke-width="5"/>
<circle cx="112.5" cy="72.4884" r="3.5" fill="#212D2D"/>
<circle cx="116" cy="60.9884" r="3" fill="#212D2D"/>
<circle cx="121" cy="52.9884" r="2" fill="#212D2D"/>
<path d="M240.688 94.2603L236.944 90.5643C235.632 91.5563 234.168 92.3323 232.552 92.8923C230.952 93.4523 229.264 93.7323 227.488 93.7323C225.216 93.7323 223.08 93.2843 221.08 92.3883C219.08 91.4763 217.32 90.2283 215.8 88.6443C214.28 87.0443 213.088 85.1883 212.224 83.0763C211.36 80.9643 210.928 78.7083 210.928 76.3083C210.928 73.9083 211.36 71.6603 212.224 69.5643C213.088 67.4523 214.28 65.5963 215.8 63.9963C217.32 62.3963 219.08 61.1483 221.08 60.2523C223.08 59.3403 225.216 58.8843 227.488 58.8843C229.776 58.8843 231.92 59.3403 233.92 60.2523C235.92 61.1483 237.68 62.3963 239.2 63.9963C240.72 65.5963 241.904 67.4523 242.752 69.5643C243.616 71.6603 244.048 73.9083 244.048 76.3083C244.048 78.1803 243.776 79.9643 243.232 81.6603C242.688 83.3403 241.944 84.8923 241 86.3163L244.816 90.1323L240.688 94.2603ZM227.488 87.8763C228.416 87.8763 229.328 87.7403 230.224 87.4683C231.12 87.1803 231.944 86.7803 232.696 86.2683L229.648 83.2203L233.776 79.0683L236.632 81.9483C237.144 81.1163 237.528 80.2203 237.784 79.2603C238.056 78.3003 238.192 77.3163 238.192 76.3083C238.192 74.7083 237.912 73.2123 237.352 71.8203C236.792 70.4283 236.016 69.2043 235.024 68.1483C234.048 67.0763 232.912 66.2443 231.616 65.6523C230.336 65.0443 228.96 64.7403 227.488 64.7403C226.016 64.7403 224.632 65.0443 223.336 65.6523C222.04 66.2603 220.896 67.1003 219.904 68.1723C218.928 69.2283 218.16 70.4523 217.6 71.8443C217.056 73.2363 216.784 74.7243 216.784 76.3083C216.784 77.8923 217.064 79.3883 217.624 80.7963C218.184 82.1883 218.952 83.4203 219.928 84.4923C220.92 85.5483 222.056 86.3803 223.336 86.9883C224.632 87.5803 226.016 87.8763 227.488 87.8763ZM249.352 84.3723V69.2523H255.208V82.8363C255.208 83.7803 255.44 84.6443 255.904 85.4283C256.368 86.1963 256.984 86.8123 257.752 87.2763C258.536 87.7243 259.392 87.9483 260.32 87.9483C261.28 87.9483 262.144 87.7243 262.912 87.2763C263.68 86.8123 264.296 86.1963 264.76 85.4283C265.224 84.6443 265.456 83.7803 265.456 82.8363V69.2523H271.312L271.336 93.2523H265.48L265.456 91.0683C264.624 91.9323 263.64 92.6203 262.504 93.1323C261.368 93.6283 260.152 93.8763 258.856 93.8763C257.112 93.8763 255.52 93.4523 254.08 92.6043C252.64 91.7403 251.488 90.5963 250.624 89.1723C249.776 87.7323 249.352 86.1323 249.352 84.3723ZM295.301 69.2523H301.157V93.2523H295.301L295.037 90.2763C294.381 91.3483 293.509 92.2203 292.421 92.8923C291.349 93.5483 290.077 93.8763 288.605 93.8763C286.829 93.8763 285.165 93.5403 283.613 92.8683C282.061 92.1963 280.693 91.2683 279.509 90.0843C278.341 88.9003 277.421 87.5323 276.749 85.9803C276.093 84.4283 275.765 82.7643 275.765 80.9883C275.765 79.2763 276.077 77.6683 276.701 76.1643C277.341 74.6603 278.229 73.3403 279.365 72.2043C280.501 71.0683 281.813 70.1803 283.301 69.5403C284.789 68.9003 286.389 68.5803 288.101 68.5803C289.685 68.5803 291.101 68.9323 292.349 69.6363C293.613 70.3403 294.685 71.2363 295.565 72.3243L295.301 69.2523ZM288.461 88.2363C289.709 88.2363 290.813 87.9243 291.773 87.3003C292.733 86.6763 293.485 85.8363 294.029 84.7803C294.573 83.7083 294.845 82.5323 294.845 81.2523C294.845 79.9563 294.573 78.7803 294.029 77.7243C293.485 76.6523 292.725 75.8043 291.749 75.1803C290.789 74.5563 289.693 74.2443 288.461 74.2443C287.229 74.2443 286.101 74.5643 285.077 75.2043C284.069 75.8283 283.261 76.6683 282.653 77.7243C282.061 78.7803 281.765 79.9563 281.765 81.2523C281.765 82.5483 282.069 83.7243 282.677 84.7803C283.285 85.8363 284.093 86.6763 285.101 87.3003C286.125 87.9243 287.245 88.2363 288.461 88.2363ZM307.404 93.2523L307.38 69.2523H313.236L313.26 71.3883C314.076 70.5243 315.052 69.8443 316.188 69.3483C317.324 68.8363 318.548 68.5803 319.86 68.5803C320.74 68.5803 321.62 68.7083 322.5 68.9643L320.196 74.8683C319.588 74.6283 318.98 74.5083 318.372 74.5083C317.428 74.5083 316.564 74.7403 315.78 75.2043C315.012 75.6523 314.396 76.2683 313.932 77.0523C313.484 77.8203 313.26 78.6763 313.26 79.6203V93.2523H307.404ZM348.064 93.2523H341.32L335.848 83.8203L332.488 87.8283V93.2523H326.632V57.2523H332.488V78.7323L340.432 69.2523H348.088L339.856 79.0683L348.064 93.2523ZM381.8 93.2523H373.568V88.2123C372.746 89.7056 371.626 91.0123 370.208 92.1323C368.789 93.2523 366.941 93.8123 364.664 93.8123C361.453 93.8123 358.858 92.7296 356.88 90.5643C354.938 88.3616 353.968 85.319 353.968 81.4363C353.968 78.1136 354.826 75.015 356.544 72.1403C358.261 69.2656 361.154 67.8283 365.224 67.8283C369.106 67.8283 371.888 69.3403 373.568 72.3643V57.9163H367.52V54.7243H377.488V90.0603H381.8V93.2523ZM373.568 82.2203V78.2443C373.493 76.1536 372.728 74.455 371.272 73.1483C369.816 71.8416 368.098 71.1883 366.12 71.1883C363.357 71.1883 361.322 72.1963 360.016 74.2123C358.746 76.2283 358.112 78.543 358.112 81.1563C358.112 84.2176 358.821 86.5323 360.24 88.1003C361.696 89.6683 363.506 90.4523 365.672 90.4523C367.912 90.4523 369.76 89.5563 371.216 87.7643C372.709 85.935 373.493 84.087 373.568 82.2203ZM410.91 80.7643C410.91 84.535 409.79 87.6523 407.55 90.1163C405.31 92.5803 402.267 93.8123 398.422 93.8123C394.651 93.8123 391.683 92.6176 389.518 90.2283C387.39 87.839 386.326 84.759 386.326 80.9883C386.326 77.367 387.371 74.2683 389.462 71.6923C391.553 69.079 394.614 67.7723 398.646 67.7723C402.715 67.7723 405.777 69.0603 407.83 71.6363C409.883 74.175 410.91 77.2176 410.91 80.7643ZM406.766 80.7083C406.766 77.871 406.038 75.575 404.582 73.8203C403.163 72.0283 401.147 71.1323 398.534 71.1323C395.921 71.1323 393.905 72.047 392.486 73.8763C391.105 75.7056 390.414 78.0016 390.414 80.7643C390.414 83.4896 391.105 85.7856 392.486 87.6523C393.867 89.519 395.883 90.4523 398.534 90.4523C401.185 90.4523 403.219 89.5376 404.638 87.7083C406.057 85.8416 406.766 83.5083 406.766 80.7083ZM456.434 71.5243H453.578L446.242 93.2523H443.218L435.602 74.2123H435.322L427.874 93.2523H424.962L417.346 71.5243H414.602V68.3323H426.362V71.5243H421.602L426.81 87.2603H427.09L434.482 68.3323H437.114L444.898 87.2603H445.178L449.77 71.5243H445.234V68.3323H456.434V71.5243ZM490.237 93.2523H477.637V90.0603H481.949V78.4683C481.949 75.7803 481.408 73.895 480.325 72.8123C479.242 71.6923 477.861 71.1323 476.181 71.1323C473.941 71.1323 472.13 71.879 470.749 73.3723C469.405 74.8283 468.696 76.5083 468.621 78.4123V90.0603H472.989V93.2523H460.333V90.0603H464.701V71.5243H460.221V68.3323H468.621V72.7563C470.413 69.471 473.325 67.8283 477.357 67.8283C479.784 67.8283 481.818 68.575 483.461 70.0683C485.104 71.5616 485.925 73.9696 485.925 77.2923V90.0603H490.237V93.2523Z" fill="#212D2D"/>
</svg>
