<svg width="150" height="151" viewBox="0 0 150 151" fill="none" xmlns="http://www.w3.org/2000/svg">
<path fill-rule="evenodd" clip-rule="evenodd" d="M91.2682 111.071C87.6778 112.692 83.7821 113.799 79.6625 114.289C57.9997 116.864 38.3511 101.39 35.7761 79.7273C33.7391 62.5899 42.9975 46.7131 57.6798 39.5527C57.6174 40.6307 57.5543 41.824 57.4998 43.0227C44.805 49.9614 36.943 64.1275 38.7552 79.3732C41.1346 99.3907 59.2909 113.689 79.3083 111.31C83.5458 110.806 87.527 109.595 91.148 107.81C91.1503 107.844 91.1526 107.878 91.1548 107.912C91.2294 109.057 91.2648 110.11 91.2682 111.071ZM104.549 101.279C111.768 93.1346 115.61 82.0602 114.224 70.4024C111.964 51.3876 96.5486 37.1413 78.1635 35.6841C78.9552 36.73 79.7475 37.8291 80.5378 38.9781C96.354 41.3961 109.264 54.0953 111.245 70.7565C112.416 80.6119 109.545 90.0162 103.939 97.3085C104.172 98.6556 104.375 99.9803 104.549 101.279Z" fill="#F8F8F8"/>
<path fill-rule="evenodd" clip-rule="evenodd" d="M92.3238 89.6943C90.8983 83.9501 88.9551 77.7621 86.4935 71.3851C81.333 58.016 75.0435 46.7929 69.2063 39.4508C66.2645 35.7505 63.6547 33.3123 61.5995 32.0084C60.3877 31.2395 59.6991 31.0572 59.4044 31.0168C59.2133 31.2448 58.8257 31.8424 58.4448 33.2261C58.0127 34.7956 57.7378 36.9074 57.695 39.5453C55.6008 40.5655 53.6168 41.763 51.7601 43.1162C51.2992 33.5987 53.074 26.9696 57.2238 25.3677C65.8462 22.0395 81.4567 41.6748 92.091 69.2244C94.7342 76.0722 96.8212 82.7643 98.3328 89.0063C97.0731 88.0954 95.5236 87.7914 94.1196 88.3312C93.3897 88.6119 92.7834 89.0881 92.3238 89.6943ZM94.0868 98.0207C94.6211 101.116 94.9742 104.011 95.1463 106.652C95.4537 111.369 95.1589 114.929 94.5129 117.275C94.1319 118.659 93.7444 119.257 93.5533 119.485C93.2586 119.444 92.57 119.262 91.3581 118.493C89.7202 117.454 87.7299 115.694 85.5001 113.149C83.6133 113.667 81.6643 114.051 79.6624 114.289C79.355 114.325 79.0479 114.358 78.7413 114.387C85.1635 122.585 91.3513 126.825 95.7339 125.134C101.273 122.996 102.581 111.9 99.9877 96.9331C99.5129 97.6441 98.8514 98.2024 98.0354 98.5161C96.7282 99.0187 95.2949 98.7898 94.0868 98.0207ZM93.4313 119.608L93.4321 119.607L93.4333 119.606C93.4349 119.605 93.4374 119.603 93.4409 119.601C93.4347 119.606 93.4314 119.608 93.4313 119.608ZM93.7143 119.495C93.7221 119.494 93.7261 119.494 93.7262 119.494C93.7262 119.494 93.7223 119.495 93.7143 119.495ZM59.5264 30.894C59.5265 30.8942 59.5233 30.8967 59.5167 30.901C59.523 30.896 59.5263 30.8938 59.5264 30.894ZM59.2434 31.0065C59.2356 31.0078 59.2315 31.008 59.2315 31.0078C59.2314 31.0076 59.2353 31.007 59.2434 31.0065Z" fill="#F8F8F8"/>
<path d="M70.9284 76.4869C70.9284 76.4869 84.4093 82.4016 94.757 90.5441C95.3187 90.9861 96.1554 90.7315 96.363 90.0477C99.8043 78.7124 103.928 66.4869 103.928 66.4869" stroke="#F8F8F8" stroke-width="5"/>
<circle cx="47.9962" cy="71.9869" r="3.5" fill="#F8F8F8"/>
<circle cx="51.4962" cy="60.4869" r="3" fill="#F8F8F8"/>
<circle cx="56.4962" cy="52.4869" r="2" fill="#F8F8F8"/>
</svg>
