<svg width="391" height="101" viewBox="0 0 391 101" fill="none" xmlns="http://www.w3.org/2000/svg">
<path fill-rule="evenodd" clip-rule="evenodd" d="M55.7721 86.5724C52.1817 88.1934 48.2859 89.3006 44.1663 89.7903C22.5036 92.3653 2.85499 76.8916 0.279993 55.2288C-1.75708 38.0915 7.50137 22.2147 22.1837 15.0543C22.1212 16.1322 22.0582 17.3255 22.0036 18.5243C9.30883 25.463 1.44681 39.629 3.25902 54.8747C5.63845 74.8922 23.7947 89.1907 43.8122 86.8112C48.0497 86.3075 52.0309 85.0968 55.6519 83.3111C55.6541 83.3454 55.6564 83.3797 55.6586 83.4139C55.7332 84.5588 55.7687 85.6111 55.7721 86.5724ZM69.0524 76.7802C76.2722 68.6361 80.1134 57.5617 78.7277 45.904C76.4675 26.8891 61.0525 12.6428 42.6673 11.1856C43.4591 12.2316 44.2513 13.3307 45.0417 14.4796C60.8578 16.8976 73.7682 29.5968 75.7487 46.2581C76.9202 56.1135 74.049 65.5177 68.4429 72.8101C68.6756 74.1571 68.8791 75.4819 69.0524 76.7802Z" fill="#212D2D"/>
<path fill-rule="evenodd" clip-rule="evenodd" d="M56.8277 65.1959C55.4021 59.4517 53.4589 53.2636 50.9973 46.8866C45.8368 33.5175 39.5473 22.2944 33.7102 14.9523C30.7684 11.252 28.1586 8.81386 26.1034 7.50993C24.8915 6.74105 24.2029 6.55877 23.9082 6.5183C23.7171 6.74629 23.3296 7.34396 22.9486 8.72766C22.5165 10.2971 22.2416 12.409 22.1988 15.0469C20.1046 16.0671 18.1207 17.2646 16.264 18.6177C15.8031 9.10019 17.5778 2.4711 21.7277 0.869256C30.35 -2.459 45.9606 17.1763 56.5948 44.726C59.238 51.5737 61.3251 58.2658 62.8366 64.5078C61.577 63.597 60.0275 63.293 58.6235 63.8328C57.8936 64.1134 57.2873 64.5896 56.8277 65.1959ZM58.5906 73.5222C59.1249 76.6174 59.4781 79.5122 59.6502 82.1538C59.9575 86.871 59.6628 90.4303 59.0167 92.7769C58.6358 94.1606 58.2482 94.7583 58.0572 94.9863C57.7624 94.9458 57.0738 94.7635 55.862 93.9947C54.224 92.9554 52.2338 91.1957 50.0039 88.6509C48.1171 89.1685 46.1681 89.5523 44.1663 89.7902C43.8588 89.8268 43.5518 89.8597 43.2451 89.889C49.6673 98.0862 55.8552 102.327 60.2377 100.635C65.7771 98.4971 67.0845 87.4012 64.4916 72.4347C64.0168 73.1456 63.3552 73.7039 62.5392 74.0176C61.2321 74.5202 59.7987 74.2913 58.5906 73.5222ZM57.9351 95.1091L57.9359 95.1083L57.9371 95.1073C57.9387 95.1061 57.9413 95.1044 57.9448 95.1021C57.9385 95.1071 57.9352 95.1092 57.9351 95.1091ZM58.2181 94.9965C58.2259 94.9953 58.23 94.9951 58.23 94.9952C58.2301 94.9954 58.2262 94.996 58.2181 94.9965ZM24.0302 6.39552C24.0303 6.39569 24.0272 6.39821 24.0206 6.40256C24.0268 6.39752 24.0301 6.39534 24.0302 6.39552ZM23.7472 6.50807C23.7394 6.50929 23.7354 6.50953 23.7353 6.50934C23.7353 6.50916 23.7392 6.50855 23.7472 6.50807Z" fill="#212D2D"/>
<path d="M35.4323 51.9885C35.4323 51.9885 48.9132 57.9032 59.2609 66.0456C59.8225 66.4876 60.6593 66.233 60.8669 65.5492C64.3081 54.214 68.4323 41.9885 68.4323 41.9885" stroke="#212D2D" stroke-width="5"/>
<circle cx="12.5" cy="47.4884" r="3.5" fill="#212D2D"/>
<circle cx="16" cy="35.9884" r="3" fill="#212D2D"/>
<circle cx="21" cy="27.9884" r="2" fill="#212D2D"/>
<path d="M140.688 69.2603L136.944 65.5643C135.632 66.5563 134.168 67.3323 132.552 67.8923C130.952 68.4523 129.264 68.7323 127.488 68.7323C125.216 68.7323 123.08 68.2843 121.08 67.3883C119.08 66.4763 117.32 65.2283 115.8 63.6443C114.28 62.0443 113.088 60.1883 112.224 58.0763C111.36 55.9643 110.928 53.7083 110.928 51.3083C110.928 48.9083 111.36 46.6603 112.224 44.5643C113.088 42.4523 114.28 40.5963 115.8 38.9963C117.32 37.3963 119.08 36.1483 121.08 35.2523C123.08 34.3403 125.216 33.8843 127.488 33.8843C129.776 33.8843 131.92 34.3403 133.92 35.2523C135.92 36.1483 137.68 37.3963 139.2 38.9963C140.72 40.5963 141.904 42.4523 142.752 44.5643C143.616 46.6603 144.048 48.9083 144.048 51.3083C144.048 53.1803 143.776 54.9643 143.232 56.6603C142.688 58.3403 141.944 59.8923 141 61.3163L144.816 65.1323L140.688 69.2603ZM127.488 62.8763C128.416 62.8763 129.328 62.7403 130.224 62.4683C131.12 62.1803 131.944 61.7803 132.696 61.2683L129.648 58.2203L133.776 54.0683L136.632 56.9483C137.144 56.1163 137.528 55.2203 137.784 54.2603C138.056 53.3003 138.192 52.3163 138.192 51.3083C138.192 49.7083 137.912 48.2123 137.352 46.8203C136.792 45.4283 136.016 44.2043 135.024 43.1483C134.048 42.0763 132.912 41.2443 131.616 40.6523C130.336 40.0443 128.96 39.7403 127.488 39.7403C126.016 39.7403 124.632 40.0443 123.336 40.6523C122.04 41.2603 120.896 42.1003 119.904 43.1723C118.928 44.2283 118.16 45.4523 117.6 46.8443C117.056 48.2363 116.784 49.7243 116.784 51.3083C116.784 52.8923 117.064 54.3883 117.624 55.7963C118.184 57.1883 118.952 58.4203 119.928 59.4923C120.92 60.5483 122.056 61.3803 123.336 61.9883C124.632 62.5803 126.016 62.8763 127.488 62.8763ZM149.352 59.3723V44.2523H155.208V57.8363C155.208 58.7803 155.44 59.6443 155.904 60.4283C156.368 61.1963 156.984 61.8123 157.752 62.2763C158.536 62.7243 159.392 62.9483 160.32 62.9483C161.28 62.9483 162.144 62.7243 162.912 62.2763C163.68 61.8123 164.296 61.1963 164.76 60.4283C165.224 59.6443 165.456 58.7803 165.456 57.8363V44.2523H171.312L171.336 68.2523H165.48L165.456 66.0683C164.624 66.9323 163.64 67.6203 162.504 68.1323C161.368 68.6283 160.152 68.8763 158.856 68.8763C157.112 68.8763 155.52 68.4523 154.08 67.6043C152.64 66.7403 151.488 65.5963 150.624 64.1723C149.776 62.7323 149.352 61.1323 149.352 59.3723ZM195.301 44.2523H201.157V68.2523H195.301L195.037 65.2763C194.381 66.3483 193.509 67.2203 192.421 67.8923C191.349 68.5483 190.077 68.8763 188.605 68.8763C186.829 68.8763 185.165 68.5403 183.613 67.8683C182.061 67.1963 180.693 66.2683 179.509 65.0843C178.341 63.9003 177.421 62.5323 176.749 60.9803C176.093 59.4283 175.765 57.7643 175.765 55.9883C175.765 54.2763 176.077 52.6683 176.701 51.1643C177.341 49.6603 178.229 48.3403 179.365 47.2043C180.501 46.0683 181.813 45.1803 183.301 44.5403C184.789 43.9003 186.389 43.5803 188.101 43.5803C189.685 43.5803 191.101 43.9323 192.349 44.6363C193.613 45.3403 194.685 46.2363 195.565 47.3243L195.301 44.2523ZM188.461 63.2363C189.709 63.2363 190.813 62.9243 191.773 62.3003C192.733 61.6763 193.485 60.8363 194.029 59.7803C194.573 58.7083 194.845 57.5323 194.845 56.2523C194.845 54.9563 194.573 53.7803 194.029 52.7243C193.485 51.6523 192.725 50.8043 191.749 50.1803C190.789 49.5563 189.693 49.2443 188.461 49.2443C187.229 49.2443 186.101 49.5643 185.077 50.2043C184.069 50.8283 183.261 51.6683 182.653 52.7243C182.061 53.7803 181.765 54.9563 181.765 56.2523C181.765 57.5483 182.069 58.7243 182.677 59.7803C183.285 60.8363 184.093 61.6763 185.101 62.3003C186.125 62.9243 187.245 63.2363 188.461 63.2363ZM207.404 68.2523L207.38 44.2523H213.236L213.26 46.3883C214.076 45.5243 215.052 44.8443 216.188 44.3483C217.324 43.8363 218.548 43.5803 219.86 43.5803C220.74 43.5803 221.62 43.7083 222.5 43.9643L220.196 49.8683C219.588 49.6283 218.98 49.5083 218.372 49.5083C217.428 49.5083 216.564 49.7403 215.78 50.2043C215.012 50.6523 214.396 51.2683 213.932 52.0523C213.484 52.8203 213.26 53.6763 213.26 54.6203V68.2523H207.404ZM248.064 68.2523H241.32L235.848 58.8203L232.488 62.8283V68.2523H226.632V32.2523H232.488V53.7323L240.432 44.2523H248.088L239.856 54.0683L248.064 68.2523ZM281.8 68.2523H273.568V63.2123C272.746 64.7056 271.626 66.0123 270.208 67.1323C268.789 68.2523 266.941 68.8123 264.664 68.8123C261.453 68.8123 258.858 67.7296 256.88 65.5643C254.938 63.3616 253.968 60.319 253.968 56.4363C253.968 53.1136 254.826 50.015 256.544 47.1403C258.261 44.2656 261.154 42.8283 265.224 42.8283C269.106 42.8283 271.888 44.3403 273.568 47.3643V32.9163H267.52V29.7243H277.488V65.0603H281.8V68.2523ZM273.568 57.2203V53.2443C273.493 51.1536 272.728 49.455 271.272 48.1483C269.816 46.8416 268.098 46.1883 266.12 46.1883C263.357 46.1883 261.322 47.1963 260.016 49.2123C258.746 51.2283 258.112 53.543 258.112 56.1563C258.112 59.2176 258.821 61.5323 260.24 63.1003C261.696 64.6683 263.506 65.4523 265.672 65.4523C267.912 65.4523 269.76 64.5563 271.216 62.7643C272.709 60.935 273.493 59.087 273.568 57.2203ZM310.91 55.7643C310.91 59.535 309.79 62.6523 307.55 65.1163C305.31 67.5803 302.267 68.8123 298.422 68.8123C294.651 68.8123 291.683 67.6176 289.518 65.2283C287.39 62.839 286.326 59.759 286.326 55.9883C286.326 52.367 287.371 49.2683 289.462 46.6923C291.553 44.079 294.614 42.7723 298.646 42.7723C302.715 42.7723 305.777 44.0603 307.83 46.6363C309.883 49.175 310.91 52.2176 310.91 55.7643ZM306.766 55.7083C306.766 52.871 306.038 50.575 304.582 48.8203C303.163 47.0283 301.147 46.1323 298.534 46.1323C295.921 46.1323 293.905 47.047 292.486 48.8763C291.105 50.7056 290.414 53.0016 290.414 55.7643C290.414 58.4896 291.105 60.7856 292.486 62.6523C293.867 64.519 295.883 65.4523 298.534 65.4523C301.185 65.4523 303.219 64.5376 304.638 62.7083C306.057 60.8416 306.766 58.5083 306.766 55.7083ZM356.434 46.5243H353.578L346.242 68.2523H343.218L335.602 49.2123H335.322L327.874 68.2523H324.962L317.346 46.5243H314.602V43.3323H326.362V46.5243H321.602L326.81 62.2603H327.09L334.482 43.3323H337.114L344.898 62.2603H345.178L349.77 46.5243H345.234V43.3323H356.434V46.5243ZM390.237 68.2523H377.637V65.0603H381.949V53.4683C381.949 50.7803 381.408 48.895 380.325 47.8123C379.242 46.6923 377.861 46.1323 376.181 46.1323C373.941 46.1323 372.13 46.879 370.749 48.3723C369.405 49.8283 368.696 51.5083 368.621 53.4123V65.0603H372.989V68.2523H360.333V65.0603H364.701V46.5243H360.221V43.3323H368.621V47.7563C370.413 44.471 373.325 42.8283 377.357 42.8283C379.784 42.8283 381.818 43.575 383.461 45.0683C385.104 46.5616 385.925 48.9696 385.925 52.2923V65.0603H390.237V68.2523Z" fill="#212D2D"/>
</svg>
