<svg id="图层_1" data-name="图层 1" xmlns="http://www.w3.org/2000/svg" viewBox="0 0 295.69 74.49"><defs><style>.cls-1{fill:#004e9d;}.cls-2{fill:#004ea2;}.cls-3{fill:none;stroke:#9c3890;stroke-linecap:round;stroke-linejoin:round;stroke-width:5px;}</style></defs><path class="cls-1" d="M215.69,453.45V398.34H251v7.42H231.15v16H250v7.42H231.15v24.24Z" transform="translate(-135.48 -394.42)"/><path class="cls-1" d="M258.52,453.45V416.89h16q7.38,0,11.21,2.78a9.38,9.38,0,0,1,3.83,8.1,9.79,9.79,0,0,1-1.71,6,9.15,9.15,0,0,1-5.13,3.25l10.72,16.45H279.46l-8.28-17.23v-.66a8.24,8.24,0,0,0,5-2.2,7,7,0,0,0,1.58-4.89,6.48,6.48,0,0,0-1.69-4.86,6.85,6.85,0,0,0-5-1.65c-.33,0-.6,0-.79,0a4.08,4.08,0,0,0-.53.06v31.41Z" transform="translate(-135.48 -394.42)"/><rect class="cls-1" x="163.57" y="22.47" width="11.91" height="36.57"/><path class="cls-1" d="M355.19,394.42v59H339.82q-10.14,0-15.46-4.51T319,435.81q0-9.15,5.77-14t16.61-4.88h1.86V394.42ZM343.28,422c-4,.05-6.9,1.11-8.66,3.15S332,430.53,332,435.23s.88,8,2.62,10,4.64,3.06,8.68,3.11Z" transform="translate(-135.48 -394.42)"/><path class="cls-1" d="M361.46,453.45l9.52-29.8c.94-3,2-5,3.2-6.19a6.68,6.68,0,0,1,4.84-1.73,6.18,6.18,0,0,1,4.45,1.53c1.07,1,2.06,2.95,3,5.81l9.85,30.38H383.8l-2-6.68H369.62l-1.94,6.68Zm9.69-11.75h9.11l-4.37-15.87Z" transform="translate(-135.48 -394.42)"/><path class="cls-1" d="M397.32,416.89h13.15l7.34,17.39,7.13-17.39h6.23l-22.39,52h-6.63l9.19-21.27Z" transform="translate(-135.48 -394.42)"/><path class="cls-2" d="M152.67,394.75c-11.61,0-15.37,6.35-16.6,15.77h4l11,16.81,11-16.81h13.46V441.7h5.26l-12.51,11.83L155.23,441.7h6.63V421.2l-13.23,20.5h-1.32l-11.83-17.9v2.09c0,17.21,0,31.15,17.19,31.15s45.1-13.94,45.1-31.15S169.87,394.75,152.67,394.75Z" transform="translate(-135.48 -394.42)"/><polyline class="cls-3" points="160.77 6.73 169.52 16.51 177.59 6.73"/></svg>